<svg id="Capa_1" enable-background="new 0 0 512 512" height="512" viewBox="0 0 512 512" width="512" xmlns="http://www.w3.org/2000/svg"><g><g><g><path d="m211.381 8.648c-100.308 22.303-175.737 118.311-175.737 233.369 0 72.347 24.578 137.852 64.325 185.329 6.59 7.871 16.399 12.326 26.664 12.326h129.367v-197.655-220.343c-11.673-11.673-28.505-16.61-44.619-13.026z" fill="#4c5659"/><path d="m300.618 8.648c-16.115-3.584-32.946 1.354-44.619 13.027v220.343 197.655h129.367c10.265 0 20.074-4.455 26.664-12.326 39.746-47.478 64.324-112.982 64.324-185.329.001-115.06-75.428-211.067-175.736-233.37z" fill="#676f72"/></g><g><g><path d="m353.898 466.41c-3.449-15.087-10.248-28.898-19.56-40.589-14.452-18.148-34.957-31.191-58.397-35.973-6.446-1.316-13.115-2.006-19.94-2.006-.001 0-.002 0-.002 0-31.643 0-59.911 14.841-78.338 37.979-13.829 17.365-22.118 39.402-22.118 63.359v15.32h100.456.001 100.455v-15.322c.001-7.826-.884-15.447-2.557-22.768z" fill="#d4d4d5"/><path d="m247.782 496.051c-7.772-25.674-11.712-52.289-11.712-79.108v-27.077c-23.443 4.78-43.956 17.806-58.41 35.955-3.303 4.148-6.279 8.568-8.912 13.211-8.392 14.797-13.205 31.913-13.205 50.147v15.321h23.912 70.885z" fill="#b9bbbc"/></g><g><path d="m177.661 425.82c-13.829 17.365-22.118 39.402-22.118 63.358v15.322h64.325c-8.595-28.391-12.962-57.893-12.962-87.557v-16.151c-11.267 6.395-21.196 14.92-29.245 25.028z" fill="#ce857a"/><path d="m206.905 416.943v-16.151c-11.267 6.396-21.195 14.92-29.244 25.028-1.214 1.525-2.397 3.099-3.523 4.694-3.818 5.412-3.356 12.744.937 17.787l15.223 17.883-4.155 10.829c-2.984 7.779 1.106 16.478 9 19.142l24.725 8.344c-8.595-28.39-12.963-57.892-12.963-87.556z" fill="#d6948c"/><path d="m334.338 425.82c13.829 17.365 22.118 39.402 22.118 63.358v15.322h-64.325c8.595-28.391 12.962-57.893 12.962-87.557v-16.151c11.267 6.395 21.195 14.92 29.245 25.028z" fill="#d6948c"/><path d="m305.093 416.943v-16.151c11.267 6.396 21.195 14.92 29.245 25.028 1.214 1.525 2.385 3.086 3.511 4.682 3.818 5.412 3.368 12.757-.925 17.8l-15.223 17.883 4.155 10.829c2.984 7.779-1.106 16.478-9 19.142l-24.725 8.344c8.594-28.391 12.962-57.893 12.962-87.557z" fill="#e8b5b1"/></g><path d="m305.093 400.791-49.093-29.812-49.091 29.812c-.012.099 0 11.389.005 15.688.001 1.085.125 2.173.455 3.207 6.424 20.119 33.483 28.165 48.63 9.359 15.147 18.806 42.209 10.76 48.633-9.359.33-1.034.454-2.122.455-3.207.006-4.299.018-15.589.006-15.688z" fill="#efedee"/></g><g><path d="m443.95 173.966h-375.901c-25.056 0-45.367 20.312-45.367 45.367s20.312 45.367 45.367 45.367h375.901c25.056 0 45.367-20.312 45.367-45.367s-20.311-45.367-45.367-45.367z" fill="#ffcbbe"/><path d="m287.3 33.992c-10.181-1.707-20.635-2.609-31.3-2.609-10.666 0-21.119.902-31.3 2.609-88.902 14.905-156.651 92.205-156.651 185.342s67.749 170.436 156.651 185.341c10.181 1.707 20.634 2.609 31.3 2.609s21.12-.902 31.3-2.609c88.902-14.905 156.65-92.205 156.65-185.341s-67.749-170.437-156.65-185.342z" fill="#ffddcf"/><path d="m130.395 219.595c0-93.302 67.871-170.741 156.904-185.603-10.181-1.707-20.635-2.609-31.3-2.609-10.666 0-21.119.902-31.3 2.609-88.901 14.905-156.65 92.205-156.65 185.342s67.749 170.436 156.651 185.341c10.181 1.707 20.634 2.609 31.3 2.609s21.12-.902 31.3-2.609c-89.033-14.862-156.905-91.781-156.905-185.08z" fill="#ffcbbe"/></g><g fill="#ff8e9e"><path d="m153.599 251.255c-20.761 0-37.59 13.348-37.59 29.813 0 16.466 16.83 29.813 37.59 29.813s37.59-13.348 37.59-29.813-16.83-29.813-37.59-29.813z"/><path d="m358.4 251.255c-20.76 0-37.59 13.348-37.59 29.813 0 16.466 16.83 29.813 37.59 29.813 20.761 0 37.59-13.348 37.59-29.813s-16.829-29.813-37.59-29.813z"/></g></g><g><path d="m447.864 171.627c-18.946-76.422-81.34-134.21-158.958-147.222-10.858-1.82-21.882-2.73-32.907-2.73s-22.049.91-32.907 2.73c-77.617 13.013-140.012 70.8-158.958 147.222l9.436 2.339c-3.602 14.529-5.522 29.723-5.522 45.366 31.134-.023 61.595-6.439 89.783-18.748 11.951-5.218 23.496-11.489 34.506-18.793 25.667-17.024 47.243-38.77 63.661-63.959 16.418 25.189 37.994 46.934 63.661 63.959 36.981 24.529 79.956 37.507 124.289 37.539 0-15.643-1.92-30.836-5.522-45.365z" fill="#676f72"/><path d="m223.093 24.405c-77.617 13.013-140.012 70.8-158.958 147.222l9.436 2.339c-3.602 14.529-5.522 29.723-5.522 45.366 31.134-.023 61.595-6.439 89.783-18.748 14.453-65.565 47.171-127.914 98.167-178.91-11.024 0-22.049.91-32.906 2.731z" fill="#4c5659"/></g><g><path d="m475.822 177.188c-10.885-43.043-32.497-82.092-62.624-113.074-44.042-45.292-100.562-64.114-123.022-64.114-12.329 0-24.448 4.205-34.177 11.71-9.728-7.505-21.847-11.71-34.176-11.71-20.89 0-88.963 19.188-139.053 82.366-2.573 3.245-2.028 7.963 1.218 10.536 3.244 2.572 7.962 2.028 10.536-1.218 46.539-58.7 110.104-76.684 127.299-76.684 10.738 0 21.262 4.365 28.873 11.978 2.929 2.927 7.677 2.928 10.607 0 9.383-9.384 23.532-14.158 37.688-11.009 73.862 16.423 134.77 75.418 158.749 152.334-7.707-2.085-12.874-1.836-19.312-1.836-4.872 0-8.451 4.582-7.279 9.305 2.908 11.729 4.611 23.779 5.121 35.917-72.739-2.601-137.026-41.242-173.987-97.951-2.955-4.533-9.609-4.536-12.566 0-36.951 56.693-101.27 95.372-173.987 97.94.511-12.134 2.214-24.18 5.121-35.906 1.174-4.729-2.414-9.305-7.279-9.305-6.379 0-11.573-.257-19.314 1.837 5.77-18.579 13.708-36.278 23.703-52.779 2.146-3.543 1.014-8.154-2.529-10.301-3.541-2.144-8.154-1.016-10.301 2.529-12.996 21.455-22.722 44.803-28.948 69.431-24.509 18.576-28.17 53.948-7.776 77.071 2.528 67.069 25.834 130.152 65.813 177.906 7.987 9.54 19.802 15.011 32.414 15.011h29.846c-5.504 13.239-8.435 27.536-8.435 42.007v15.321c0 4.143 3.357 7.5 7.5 7.5h200.912c4.143 0 7.5-3.357 7.5-7.5 0-17.641 1.113-34.362-8.435-57.328h29.846c12.612 0 24.427-5.471 32.415-15.011 3.906-4.665 7.717-9.563 11.326-14.556 2.427-3.356 1.673-8.045-1.685-10.472-3.354-2.425-8.044-1.674-10.472 1.685-3.402 4.705-6.992 9.319-10.671 13.714-5.13 6.126-12.753 9.64-20.914 9.64h-37.463c-6.742-11.049-15.426-20.841-25.697-28.898 24.636-8.857 47.325-22.644 66.811-40.752 26.509-24.635 45.5-55.767 55.182-90.327 8.511-.04 16.546-2.108 23.663-5.733-3.362 42.158-15.418 82.609-35.227 117.82-2.031 3.61-.751 8.184 2.858 10.214 3.611 2.031 8.185.75 10.214-2.858 22.969-40.826 36.041-88.275 37.894-137.39 20.365-23.103 16.75-58.465-7.78-77.06zm-445.641 42.146c0-19.576 14.934-35.73 34.006-37.672-2.417 12.371-3.639 25.002-3.639 37.672s1.222 25.301 3.639 37.672c-19.072-1.942-34.006-18.096-34.006-37.672zm96.451 212.838c-8.161 0-15.784-3.514-20.913-9.64-35.313-42.181-56.889-97.119-61.577-156.068 7.116 3.624 15.149 5.691 23.659 5.731 9.681 34.56 28.672 65.69 55.181 90.327 19.486 18.108 42.175 31.895 66.811 40.752-9.881 7.752-18.669 17.379-25.698 28.898zm36.411 64.828c0-9.853-.728-24.562 6.844-43.223l11.813 13.878c-2.31 6.023-8.626 17.834 1.579 29.345zm30.308-11.687c-1.671-3.552-.327-5.297 3.948-16.441.983-2.563.488-5.458-1.291-7.548l-15.222-17.883c-2.082-2.446-2.314-5.893-.606-8.453 5.304-7.514 11.568-14.255 19.226-20.202 0 26.026 2.592 50.971 9.45 78.083-11.631-3.926-13.828-3.988-15.505-7.556zm93.159 11.687h-61.021c-5.12-18.136-8.471-36.685-10.042-55.423 12.482 7.849 28.462 7.654 40.552-1.995 12.178 9.718 28.173 9.781 40.551 1.997-1.57 18.736-4.92 37.284-10.04 55.421zm11.079-79.562-.101-.032c-4.606 14.427-24.265 21.067-35.647 6.936-2.999-3.723-8.679-3.728-11.682 0-11.379 14.126-31.037 7.497-35.645-6.936l-.104.033s-.004.246-.004-7.113c27.473 5.95 55.761 5.941 83.188 0-.001 7.358-.005 7.112-.005 7.112zm44.523 36.339c7.507 18.502 6.844 33.05 6.844 43.223h-20.236c5.36-6.046 7.213-14.66 4.138-22.673l-2.56-6.672zm-10.322-18.831c1.735 2.57 1.511 6.04-.578 8.494l-15.223 17.883c-1.779 2.09-2.274 4.985-1.291 7.548l4.155 10.829c1.459 3.804-.537 8.048-4.396 9.35l-11.314 3.818c6.833-27.013 9.45-51.946 9.45-78.083 8.551 6.641 14.461 13.442 19.197 20.161zm-45.73-37.668c-19.838 3.326-40.284 3.326-60.12 0-83.431-13.988-146.742-84.448-150.225-170.59 74.19-2.447 140.137-40.086 180.284-95.611 40.342 55.793 106.376 93.149 180.284 95.617-3.483 86.153-66.807 156.598-150.223 170.584zm161.752-140.272c2.417-12.371 3.639-25.002 3.639-37.672s-1.222-25.301-3.639-37.672c19.072 1.941 34.006 18.096 34.006 37.672s-14.934 35.73-34.006 37.672z"/><path d="m175.053 229.333c-4.143 0-7.5 3.357-7.5 7.5v15.554c0 4.143 3.357 7.5 7.5 7.5s7.5-3.357 7.5-7.5v-15.554c0-4.143-3.357-7.5-7.5-7.5z"/><path d="m336.946 259.887c4.143 0 7.5-3.357 7.5-7.5v-15.554c0-4.143-3.357-7.5-7.5-7.5s-7.5 3.357-7.5 7.5v15.554c0 4.142 3.357 7.5 7.5 7.5z"/><path d="m271.686 246.996c-3.96 4.544-9.677 7.15-15.687 7.15s-11.727-2.606-15.687-7.15c-2.723-3.122-7.458-3.447-10.582-.727-3.122 2.722-3.448 7.459-.727 10.582 6.809 7.813 16.648 12.295 26.995 12.295s20.187-4.481 26.995-12.295c2.722-3.123 2.396-7.86-.727-10.582-3.123-2.721-7.86-2.396-10.58.727z"/></g></g></svg>