<svg id="Capa_1" enable-background="new 0 0 512 512" height="512" viewBox="0 0 512 512" width="512" xmlns="http://www.w3.org/2000/svg"><g><g><g><g><path d="m255.999 359.721c-17.073 0-33.461 2.979-48.682 8.431-36.868 13.204-67.827 41.38-84.095 78.69-7.708 17.677-11.999 37.173-11.999 57.658h144.777v-144.779c-.001 0-.001 0-.001 0z" fill="#ffbd86"/><path d="m388.778 446.84c-15.658-35.91-45.806-64.981-84.113-78.694-15.278-5.471-31.722-8.425-48.665-8.425v144.779h144.777c0-20.485-4.291-39.982-11.999-57.66z" fill="#fed2a4"/></g><g><path d="m304.665 368.146c-15.278-5.471-31.723-8.425-48.666-8.425-17.073 0-33.461 2.979-48.682 8.431-36.868 13.204-67.827 41.38-84.095 78.69 14.364 12.627 31.023 24.712 48.222 34.953v22.705h169.095v-22.696c17.204-10.243 33.87-22.332 48.239-34.964-15.658-35.909-45.807-64.98-84.113-78.694z" fill="#82888b"/><path d="m207.332 368.145c-32.839 11.764-60.359 35.114-77.44 65.331-1.841 3.236-3.543 6.56-5.119 9.932-.531 1.136-1.048 2.28-1.551 3.434 14.363 12.627 31.023 24.712 48.221 34.953v22.705h12.168c3.717-22.767 11.923-44.062 23.721-62.918z" fill="#676f72"/></g></g><g><path d="m255.999 359.721c-16.744 0-33.164 2.871-48.667 8.424v136.355h97.364v-136.343c-15.512-5.556-31.949-8.436-48.697-8.436z" fill="#fce3a0"/><path d="m304.647 368.141c-15.497-5.545-31.918-8.42-48.649-8.42-16.744 0-33.164 2.871-48.667 8.424v73.436c21.893-34.997 56.181-61.578 97.316-73.44z" fill="#ffce71"/></g><g><path d="m207.332 368.145-10.301 15.07c-10.852 15.873.514 37.413 19.743 37.413h39.226v-78.662z" fill="#ffce71"/><path d="m314.96 383.216-10.265-15.057-48.695-26.192v78.662h39.217c19.228 0 30.595-21.54 19.743-37.413z" fill="#fce3a0"/></g><path d="m256.04 342-48.708 26.146c8.547 22.415 25.677 40.201 48.708 52.516 23.03-12.315 40.108-30.09 48.655-52.504z" fill="#ffbd86"/></g><g fill="#ffbd86"><circle cx="82.459" cy="201.524" r="43.146"/><circle cx="429.541" cy="201.524" r="43.146"/></g><g><path d="m304.649 368.141c72.162-21.035 124.891-87.664 124.891-166.616 0-86.046-62.622-157.465-144.778-171.17-9.356-1.561-18.965-2.373-28.764-2.373-95.841 0-173.539 77.697-173.539 173.542 0 78.952 52.73 145.581 124.89 166.616 15.437 4.5 31.759 6.923 48.649 6.923 9.8 0 19.409-.816 28.764-2.379 6.77-1.131 13.407-2.654 19.887-4.543z" fill="#fed2a4"/><path d="m139.987 201.524c0-86.045 62.625-157.464 144.776-171.17-9.357-1.561-18.964-2.373-28.764-2.373-95.841 0-173.539 77.697-173.539 173.542 0 95.842 77.698 173.539 173.539 173.539 9.801 0 19.407-.818 28.764-2.379-82.151-13.705-144.776-85.117-144.776-171.159z" fill="#ffbd86"/></g><g><g><ellipse cx="161.392" cy="260.561" fill="#ffbd86" rx="34.536" ry="27.503"/></g><g><ellipse cx="350.467" cy="260.561" fill="#ffbd86" rx="34.678" ry="27.503"/></g></g><g><path d="m450.827 58.772c-.458-8.815-9.275-14.79-17.56-11.743-22.579 8.303-47.616 8.233-70.418-.58l-68.554-26.497c-15.288-5.909-31.056-9.661-46.908-11.376-50.798-5.496-102.465 10.159-142.012 44.722-30.163 26.362-37.58 70.689-17.593 105.406 14.1 14.101 37.225 14.259 51.007-.152.039-.04.075-.083.114-.123 4.171-4.386 7.738-9.417 10.528-14.978l.044-.088c6.938-13.785 18.735-24.574 33.175-30.02 18.69-7.049 38.142-11.3 57.754-12.776 29.865-2.247 60.098 1.958 88.575 12.637l22.682 8.506 10.906 21.742c2.815 5.611 6.418 10.684 10.637 15.097.036.037.074.071.109.109 13.796 14.304 36.836 14.116 50.903.049 25.964-29.396 27.93-74.522 26.611-99.935z" fill="#ff8f71"/><path d="m247.388 8.576c-50.799-5.496-102.466 10.159-142.013 44.722-30.163 26.362-37.58 70.689-17.593 105.406 14.1 14.101 37.225 14.259 51.007-.152.039-.04.075-.083.114-.123 4.171-4.386 7.738-9.417 10.528-14.978l.044-.088c6.938-13.785 18.735-24.574 33.175-30.02 18.69-7.049 38.142-11.3 57.754-12.776-38.306-47.312-.593-85.175 6.984-91.991z" fill="#ff6f4d"/></g><g><path d="m280.615 228.174c-3.122-2.724-7.861-2.397-10.581.726-3.544 4.065-8.659 6.396-14.034 6.396s-10.49-2.331-14.034-6.396c-2.721-3.123-7.459-3.448-10.581-.726-3.123 2.721-3.447 7.459-.726 10.581 6.393 7.335 15.629 11.541 25.341 11.541s18.948-4.206 25.341-11.541c2.722-3.122 2.397-7.86-.726-10.581z"/><path d="m438.747 151.733c16.176-25.601 19.884-57.491 19.884-81.275 0-5.244-.239-11.734-.38-12.734-1.132-13.555-14.754-22.445-27.572-17.734-20.965 7.71-44.095 7.592-65.125-.537-68.222-26.369-93.145-39.453-138.12-39.453-46.734 0-91.835 16.923-126.994 47.65-6.333 5.534-11.864 11.905-16.44 18.937-2.259 3.471-1.276 8.117 2.195 10.377 3.47 2.259 8.117 1.278 10.377-2.195 3.822-5.873 8.445-11.197 13.739-15.823 32.424-28.34 74.019-43.946 117.123-43.946 41.724 0 63.702 11.772 132.712 38.445 24.474 9.457 51.358 9.579 75.708.624 3.361-1.237 6.825 1.093 7.399 4.374-4.394 23.825-13.903 40.808-28.292 50.46-3.44 2.307-4.358 6.966-2.051 10.406 2.308 3.44 6.967 4.358 10.406 2.051 6.637-4.452 12.41-10.053 17.32-16.753-3.27 17.368-9.744 35.121-21.88 48.952-11.604 11.412-35.4 14.602-49.483-13.473l-3.817-7.61c4.352.622 9.362 1.072 14.765 1.072 4.081 0 8.112-.26 11.981-.771 4.106-.544 6.994-4.313 6.451-8.42-.544-4.106-4.313-6.991-8.42-6.451-14.02 1.859-28.465-.744-36.031-3.255-24.007-9.004-54.158-22.204-97.576-22.204-26.399 0-52.217 4.671-76.622 13.877-16.145 6.09-29.365 18.046-37.228 33.666-.002.003-.047.094-.049.097-7.053 14.061-17.441 21.804-29.251 21.804-7.137 0-14.429-2.91-19.701-7.823-9.083-16.288-11.975-35.568-7.765-54.244.911-4.04-1.626-8.055-5.667-8.966-4.039-.906-8.054 1.626-8.966 5.667-4.035 17.891-2.754 36.996 4.482 54.798-24.817 3.246-44.046 24.512-44.046 50.2 0 27.823 22.552 50.47 50.335 50.639 15.64 53.891 54.852 96.159 104.668 116.719-49.495 25.377-83.094 76.838-83.094 135.619 0 4.143 3.357 7.5 7.5 7.5h289.555c4.143 0 7.5-3.357 7.5-7.5 0-31.832-9.836-61.471-26.718-86.041-2.346-3.415-7.017-4.281-10.429-1.935-3.414 2.346-4.28 7.015-1.935 10.429 3.912 5.693 7.4 11.692 10.408 17.893-13.053 11.03-27.782 21.513-42.902 30.514-2.272 1.353-3.664 3.801-3.664 6.444v15.196h-20.843v-73.86c12.424-7.985 17.683-23.591 12.401-37.526 9.426 5.455 18.188 12.036 26.197 19.699 1.453 1.391 3.319 2.081 5.184 2.081 1.975 0 3.947-.775 5.42-2.314 2.863-2.993 2.759-7.741-.234-10.604-10.806-10.34-22.849-18.907-35.956-25.604 49.806-20.563 89.009-62.827 104.646-116.709 27.783-.169 50.335-22.816 50.335-50.639 0-24.782-17.896-45.448-41.44-49.791zm-360.302 85.205c-17.771-2.002-31.631-17.117-31.631-35.414 0-18.298 13.862-33.413 31.636-35.413-4.702 23.695-4.603 47.63-.005 70.827zm269.593 249.097c13.145-8.056 25.92-17.154 37.583-26.709 4.259 12.146 6.76 24.758 7.455 37.674h-45.038zm-234.561-309.145c10.297 0 29.53-3.907 42.698-30.156 6.166-12.251 16.509-21.617 29.122-26.375 23.146-8.73 47.212-12.912 71.329-12.912 39.042 0 65.865 11.232 89.646 20.243l9.592 19.123c11.901 23.722 30.833 32.279 48.929 29.608l-15.094 25.062c-5.599-7.99-14.868-13.229-25.344-13.229h-72.139c-21.957-14.296-50.476-14.296-72.433 0h-72.139c-10.476 0-19.745 5.239-25.344 13.229l-15.092-25.059c2.071.305 4.166.466 6.269.466zm224.698 43.014c0-4.143-3.357-7.5-7.5-7.5s-7.5 3.357-7.5 7.5c0 15.157-.03 14.463.048 15.175-6.96-.452-13.081-5.012-15.449-11.643l-7.209-20.183h63.791c8.786 0 15.935 7.148 15.935 15.936 0 8.786-7.148 15.935-15.935 15.935h-26.236c.089-.77.055-.068.055-15.22zm-149.35 0c0-4.143-3.357-7.5-7.5-7.5s-7.5 3.357-7.5 7.5c0 15.152-.035 14.449.055 15.22h-26.235c-8.786 0-15.935-7.148-15.935-15.936 0-8.786 7.148-15.935 15.935-15.935h63.791l-7.21 20.183c-2.368 6.631-8.488 11.19-15.448 11.643.077-.712.047-.017.047-15.175zm-24.882 277.096h-45.02c.694-12.915 3.196-25.526 7.454-37.672 11.655 9.548 24.425 18.643 37.565 26.698v10.974zm35.888 0h-20.888v-15.205c0-2.644-1.392-5.092-3.663-6.444-15.118-9.003-29.843-19.481-42.886-30.504 12.037-24.826 31.338-45.454 54.981-59.178-5.233 13.882-.025 29.499 12.456 37.495zm3.393-109.553 2.887-4.224c6.209 11.183 14.683 21.245 25.17 29.906h-14.507c-13.225 0-21.009-14.772-13.55-25.682zm45.276 109.553h-33.669v-68.938c.644.039 1.291.066 1.942.066h31.727zm-27.37-117.802c11.321 2.209 22.983 3.366 34.868 3.366 11.902 0 23.58-1.16 34.917-3.375-8.027 13.03-19.851 24.209-34.875 32.893-15.043-8.694-26.878-19.871-34.91-32.884zm76.065 117.802h-33.695v-68.871h31.717c.664 0 1.322-.027 1.979-.068v68.939zm-1.978-83.871h-14.43c10.46-8.648 18.917-18.699 25.122-29.875l2.86 4.195c7.462 10.916-.339 25.68-13.552 25.68zm-39.219-45.566c-100.636 0-177.897-88.425-164.547-188.231l25.348 42.089c1.149 16.018 14.539 28.702 30.845 28.702h39.996c13.746 0 26.088-8.697 30.711-21.643l9.957-27.875c16.836-10.774 38.548-10.774 55.383 0l9.956 27.875c4.624 12.945 16.966 21.643 30.712 21.643h39.996c16.306 0 29.696-12.684 30.845-28.702l25.351-42.093c13.291 99.526-63.616 188.235-164.553 188.235zm177.557-130.625c4.666-23.529 4.627-47.488.002-70.826 17.771 2.002 31.629 17.116 31.629 35.412.001 18.297-13.859 33.412-31.631 35.414z"/><circle cx="277.524" cy="447.804" r="7.5"/><circle cx="277.524" cy="486.563" r="7.5"/></g></g></svg>