<svg id="Capa_1" enable-background="new 0 0 512 512" height="512" viewBox="0 0 512 512" width="512" xmlns="http://www.w3.org/2000/svg"><g><g><g><path d="m325.853 434.342c-12.887-16.182-31.171-27.812-52.072-32.077-5.749-1.173-11.695-1.789-17.782-1.789-28.216 0-53.422 13.233-69.853 33.865-12.331 15.484-19.722 35.134-19.722 56.496v13.663h89.576 89.576v-13.662c0-6.979-.789-13.774-2.281-20.302-3.076-13.454-9.139-25.768-17.442-36.194z" fill="#ce857a"/><path d="m273.781 402.266c-5.749-1.173-11.695-1.789-17.782-1.789-28.216 0-53.422 13.233-69.853 33.865-8.303 10.426-14.366 22.74-17.441 36.194-1.492 6.528-2.281 13.324-2.281 20.302v13.662h35.593v-13.662c0-43.615 30.89-80.22 71.764-88.572z" fill="#c77464"/></g><g><path d="m186.004 434.521c-8.231 10.388-14.241 22.637-17.299 36.015-1.492 6.528-2.281 13.323-2.281 20.302v13.662h35.593v-31.002c0-14.598-5.763-28.597-16.013-38.977z" fill="#d4d4d5"/><path d="m325.995 434.521c-10.25 10.38-16.012 24.38-16.012 38.977v31.002h35.593v-13.662c0-6.979-.789-13.774-2.281-20.302-3.059-13.378-9.07-25.628-17.3-36.015z" fill="#efedee"/></g><path d="m300.402 417.109-.626-5.085-43.776-26.583-43.774 26.583-.626 5.087c-3.195 25.954 28.23 40.184 44.401 20.107 16.17 20.077 47.595 5.845 44.401-20.109z" fill="#efedee"/></g><path d="m423.593 209.768h-335.186c-22.342 0-40.453 18.112-40.453 40.453s18.112 40.453 40.453 40.453h335.186c22.342 0 40.453-18.112 40.453-40.453s-18.111-40.453-40.453-40.453z" fill="#ffcbbe"/><g fill="#efedee"><circle cx="76.849" cy="310.302" r="28.895"/><circle cx="435.151" cy="310.302" r="28.895"/></g><g><path d="m283.91 84.955c-9.078-1.522-18.4-2.327-27.91-2.327s-18.832.804-27.91 2.327c-79.272 13.29-139.683 82.218-139.683 165.266s60.411 151.976 139.683 165.266c9.078 1.522 18.399 2.327 27.91 2.327 9.51 0 18.832-.805 27.91-2.327 79.272-13.29 139.683-82.218 139.683-165.266s-60.411-151.976-139.683-165.266z" fill="#ffddcf"/><path d="m144 250.454c0-83.196 60.52-152.247 139.91-165.499-9.078-1.522-18.4-2.327-27.91-2.327s-18.832.804-27.91 2.327c-79.272 13.29-139.683 82.218-139.683 165.266s60.411 151.976 139.683 165.266c9.078 1.522 18.399 2.327 27.91 2.327 9.51 0 18.832-.805 27.91-2.327-79.39-13.252-139.91-81.839-139.91-165.033z" fill="#ffcbbe"/></g><g><g><g><ellipse cx="163.535" cy="304.109" fill="#ffb5c0" rx="33.929" ry="27.019"/></g></g><g><g><ellipse cx="347.44" cy="304.109" fill="#ffb5c0" rx="33.929" ry="27.019"/></g></g></g><circle cx="256" cy="88.407" fill="#b9bbbc" r="80.907"/><g><path d="m397.185 144.592c-6.058-8.098-12.793-15.645-20.119-22.562-6.578-6.211-15.496-9.32-24.528-8.801-.777-7.409-5.136-13.969-11.666-17.555-17.001-9.334-35.703-15.946-55.529-19.27h-.001c-19.363-3.245-39.321-3.245-58.686 0-45.552 7.637-85.217 32.572-111.83 68.155-14.063 18.802-21.502 41.736-21.502 65.215l66.924-.007c55.836 0 109.584-20.208 151.484-56.563l41.478 41.478c9.659 9.659 22.759 15.085 36.419 15.085h29.046c0-23.465-7.434-46.386-21.49-65.175z" fill="#d4d4d5"/><path d="m185.437 141.409c9.554-30.219 31.826-54.752 60.957-67.18-6.616.356-13.21 1.082-19.737 2.176-45.552 7.637-85.217 32.572-111.83 68.155-14.063 18.802-21.502 41.736-21.502 65.215l66.924-.007c8.614 0 17.177-.481 25.656-1.428-7.125-21.499-7.426-44.92-.468-66.931z" fill="#b9bbbc"/></g><g><circle cx="282.991" cy="478.179" r="7.5"/><path d="m190.808 278.099v-13.87c0-4.142-3.358-7.5-7.5-7.5s-7.5 3.358-7.5 7.5v13.87c0 4.142 3.358 7.5 7.5 7.5s7.5-3.358 7.5-7.5z"/><path d="m335.167 278.099v-13.87c0-4.142-3.357-7.5-7.5-7.5-4.142 0-7.5 3.358-7.5 7.5v13.87c0 4.142 3.358 7.5 7.5 7.5s7.5-3.358 7.5-7.5z"/><path d="m255.487 293.855c9.461 0 18.458-4.097 24.684-11.241 2.721-3.123 2.396-7.86-.727-10.582-3.123-2.721-7.861-2.396-10.582.727-3.376 3.875-8.251 6.097-13.375 6.097s-9.999-2.222-13.375-6.097c-2.723-3.123-7.459-3.447-10.582-.727-3.123 2.722-3.448 7.459-.727 10.582 6.227 7.144 15.224 11.241 24.684 11.241z"/><path d="m458.843 282.708c8.077-8.764 12.704-20.311 12.704-32.487 0-25.664-20.265-46.68-45.633-47.895-2.223-34.693-18.212-61.686-43.7-85.75-6.428-6.068-14.804-9.811-23.658-10.698-2.344-6.902-7.193-12.998-14.154-16.82.057-6.297-.582-12.747-1.901-18.994-.855-4.053-4.834-6.646-8.887-5.79-4.053.855-6.645 4.834-5.789 8.887.583 2.764.99 5.578 1.251 8.411-46.509-20.143-99.563-20.141-146.148-.065 3.489-37.251 34.922-66.507 73.072-66.507 24.826 0 47.789 12.41 61.426 33.197 2.273 3.463 6.922 4.428 10.385 2.157 3.463-2.272 4.429-6.922 2.156-10.385-16.419-25.028-44.07-39.969-73.967-39.969-48.748 0-88.407 39.659-88.407 88.407 0 .189.004.383.005.573-22.79 12.466-42.832 29.768-58.777 51.087-13.36 17.863-21.29 39.729-22.734 62.259-25.368 1.215-45.634 22.231-45.634 47.895 0 12.177 4.627 23.723 12.704 32.487-7.769 6.68-12.704 16.568-12.704 27.594 0 32.608 39.81 48.805 62.622 25.166 13.068 23.435 31.529 43.911 54.4 59.504 3.426 2.334 8.091 1.448 10.422-1.972 2.333-3.422 1.451-8.088-1.972-10.422-43.844-29.892-70.019-79.372-70.019-132.357 0-11.096 1.155-22.151 3.413-32.947l60.929-.006c55.118 0 108.48-19.089 151.049-53.892l36.609 36.61c11.145 11.144 25.961 17.282 41.722 17.282h23.05c2.26 10.799 3.414 21.856 3.414 32.954 0 116.569-119.989 193.162-225.182 146.297-3.783-1.685-8.217.015-9.903 3.798-1.686 3.784.015 8.217 3.798 9.903 3.468 1.545 6.987 2.97 10.546 4.284-5.528 4.47-10.58 9.525-15.073 15.166-13.771 17.292-21.355 39.016-21.355 61.168v13.662c0 4.142 3.358 7.5 7.5 7.5h179.151c4.143 0 7.5-3.358 7.5-7.5v-13.662c0-7.414-.831-14.807-2.469-21.974-3.248-14.205-9.778-27.758-18.886-39.194-4.496-5.645-9.556-10.705-15.095-15.18 39.132-14.469 71.96-42.499 92.309-79.013 22.824 23.633 62.613 7.388 62.613-25.175.001-11.025-4.934-20.914-12.703-27.594zm-142.785 151.756c-8.791 11.084-13.576 24.704-13.576 39.034v23.502h-38.982v-45.044c18.39 7.443 40.467-4.205 44.112-25.465 2.992 2.449 5.811 5.11 8.446 7.973zm-111.669-7.979c3.583 20.924 25.353 33.049 44.111 25.454v45.061h-38.982v-23.502c0-14.33-4.785-27.95-13.577-39.034 2.636-2.866 5.455-5.528 8.448-7.979zm88.715-5.131c-.478 16.114-20.44 24.597-31.262 11.159-2.997-3.722-8.68-3.727-11.682 0-10.806 13.417-30.797 4.979-31.262-11.175 25.099 5.421 50.354 5.175 74.206.016zm-119.18 69.484c0-15.794 4.315-30.809 12.535-43.952 5.239 7.822 8.059 17.009 8.059 26.612v23.502h-20.593v-6.162zm162.059-18.631c1.388 6.072 2.092 12.34 2.092 18.631v6.162h-20.593v-23.502c0-9.6 2.818-18.784 8.053-26.603 4.845 7.8 8.411 16.405 10.448 25.312zm120.564-221.986c0 9.697-4.267 18.817-11.556 25.049-5.222-1.469-10.402-1.717-15.582-.892 1.11-7.967 1.683-16.036 1.683-24.156 0-10.974-1.033-21.915-3.059-32.646 16.078 2.176 28.514 15.981 28.514 32.645zm-401.094 0c0-16.664 12.435-30.469 28.512-32.646-2.025 10.731-3.058 21.671-3.058 32.646 0 8.146.586 16.212 1.691 24.157-5.104-.813-10.289-.599-15.589.891-7.289-6.231-11.556-15.351-11.556-25.048zm0 60.081c0-15.491 16.075-25.914 30.238-19.484 2.433 10.208 5.771 20.138 9.957 29.684-10.612 19.449-40.195 11.86-40.195-10.2zm104.795-108.034-59.145.006c1.425-19.285 8.305-37.946 19.73-53.222 51.289-68.576 144.17-86.461 216.43-46.802 3.383 1.858 5.882 4.916 7.089 8.501l-37.679 36.912c-40.654 35.213-92.645 54.605-146.425 54.605zm229.381 0c-11.754 0-22.804-4.577-31.114-12.888l-36.12-36.12 33.235-32.56c6.097.271 11.932 2.673 16.287 6.784 22.623 21.361 36.754 44.65 38.98 74.784zm26.727 118.241c4.194-9.572 7.525-19.509 9.952-29.69 14.13-6.417 30.239 3.962 30.239 19.484 0 22.084-29.601 29.599-40.191 10.206z"/></g></g></svg>