<svg id="Capa_1" enable-background="new 0 0 512 512" height="512" viewBox="0 0 512 512" width="512" xmlns="http://www.w3.org/2000/svg"><g><g><g><path d="m255.998 353.498c-17.806 0-34.899 3.107-50.775 8.793-38.453 13.771-70.742 43.159-87.709 82.073-8.039 18.437-12.514 38.771-12.514 60.136h151v-151.002c-.001 0-.001 0-.002 0z" fill="#ffbd86"/><path d="m394.485 444.362c-16.331-37.453-47.775-67.774-87.728-82.077-15.935-5.706-33.086-8.787-50.757-8.787v151.002h151c0-21.366-4.476-41.7-12.515-60.138z" fill="#fed2a4"/></g><g><path d="m306.757 362.285c-15.935-5.706-33.087-8.787-50.758-8.787-17.806 0-34.899 3.107-50.775 8.793-38.453 13.771-70.742 43.159-87.709 82.073 14.981 13.17 32.357 25.774 50.294 36.455v23.681h176.363v-23.671c17.944-10.683 35.326-23.292 50.313-36.467-16.331-37.453-47.775-67.774-87.728-82.077z" fill="#fff1d4"/><path d="m288.985 357.143c-10.664-2.387-21.719-3.645-32.987-3.645-17.806 0-34.899 3.107-50.775 8.793-38.453 13.771-70.742 43.159-87.709 82.073 14.981 13.17 32.357 25.774 50.294 36.455v23.681h25.743c.075-65.613 39.226-122.071 95.434-147.357z" fill="#fce3a0"/></g></g><path d="m256 334.981-50.767 27.302c8.914 23.379 26.745 41.896 50.767 54.74 24.02-12.844 41.826-31.367 50.74-54.745z" fill="#ffbd86"/><g><g fill="#ffbd86"><circle cx="75" cy="188.501" r="45"/><circle cx="437" cy="188.501" r="45"/></g><g><path d="m306.74 362.279c75.264-21.939 130.26-91.432 130.26-173.777 0-89.745-65.314-164.234-151.001-178.527-9.758-1.628-19.78-2.475-30.001-2.475-99.96 0-180.998 81.037-180.998 181.002 0 82.346 54.996 151.838 130.258 173.778 16.101 4.694 33.125 7.221 50.741 7.221 10.221 0 20.243-.851 30.001-2.482 7.059-1.181 13.981-2.769 20.74-4.74z" fill="#fed2a4"/><path d="m135 188.502c0-89.744 65.317-164.232 150.999-178.527-9.759-1.628-19.779-2.475-30.001-2.475-99.96 0-180.998 81.037-180.998 181.002 0 99.961 81.038 180.998 180.998 180.998 10.222 0 20.241-.853 30.001-2.482-85.682-14.295-150.999-88.776-150.999-178.516z" fill="#ffbd86"/></g><g fill="#ffbd86"><path d="m157.326 221.391c-19.894 0-36.021 12.843-36.021 28.686 0 15.842 16.127 28.685 36.021 28.685s36.021-12.843 36.021-28.685c-.001-15.844-16.128-28.686-36.021-28.686z"/><path d="m354.527 221.391c-19.975 0-36.168 12.843-36.168 28.686 0 15.842 16.193 28.685 36.168 28.685s36.168-12.843 36.168-28.685c0-15.844-16.193-28.686-36.168-28.686z"/></g><g fill="#efedee"><path d="m105.55 87.839c-19.296 28.783-30.55 63.407-30.55 100.662 0 2.156.037 4.301.112 6.438 31.744-3.027 54.19-29.192 54.19-59.448 0-18.183-7.986-35.516-23.752-47.652z"/><path d="m382.698 135.492c0 30.355 22.55 56.435 54.19 59.448.074-2.137.113-4.282.113-6.438 0-37.256-11.252-71.877-30.549-100.66-14.579 10.876-23.754 28.309-23.754 47.65z"/></g></g><path d="m316.576 262.03c-8.417-15.749-23.539-26.723-41.488-30.106-7.639-1.44-15.061 1.984-19.088 8.087-4.027-6.103-11.452-9.527-19.089-8.087-17.949 3.383-33.07 14.357-41.487 30.106-7.222 13.516-11.041 28.761-11.041 44.087 0 10.332 8.376 18.708 18.708 18.708s18.708-8.376 18.708-18.708c0-9.195 2.291-18.344 6.624-26.451 3.002-5.618 8.767-9.72 15.42-10.975 5.192-.979 9.465-4.023 12.156-8.115 2.69 4.092 6.964 7.136 12.156 8.115 6.655 1.254 12.419 5.358 15.422 10.974 4.333 8.112 6.624 17.258 6.624 26.453 0 10.332 8.376 18.708 18.708 18.708s18.708-8.376 18.708-18.708c-.001-15.324-3.818-30.569-11.041-44.088z" fill="#efedee"/><g><path d="m437.053 136.003c-22.791-78.476-95.327-136.003-181.055-136.003-85.726 0-158.261 57.527-181.051 136.003-28.924.029-52.447 23.568-52.447 52.499 0 28.911 23.493 52.438 52.391 52.497 8.619 29.875 24.601 57.298 47.041 79.995 2.912 2.944 7.66 2.972 10.606.06 2.945-2.912 2.972-7.66.06-10.606-29.281-29.617-46.639-67.969-49.632-109.113 53.406-10.802 72.29-77.48 32.688-114.713 31.57-43.372 82.716-71.622 140.344-71.622 57.609 0 108.741 28.23 140.314 71.576-39.16 36.783-21.302 103.828 32.712 114.756-6.587 89.698-81.672 160.668-173.026 160.668-36.759-.001-71.89-11.362-101.595-32.855-3.356-2.429-8.044-1.677-10.473 1.68-2.428 3.355-1.676 8.045 1.68 10.473 12.23 8.85 25.307 16.114 39.004 21.729-52.022 26.383-87.114 80.206-87.114 141.473 0 4.143 3.357 7.5 7.5 7.5h302c4.143 0 7.5-3.357 7.5-7.5 0-25.33-5.941-49.396-16.87-71.075-1.864-3.7-6.375-5.19-10.072-3.322-3.699 1.863-5.187 6.373-3.322 10.072.365.726.726 1.457 1.08 2.191-13.674 11.574-29.123 22.577-44.98 32.018-2.271 1.353-3.663 3.801-3.663 6.444v16.172c-7.094 0-154.291 0-161.363 0v-16.181c0-2.644-1.392-5.092-3.663-6.444-15.853-9.44-31.296-20.439-44.963-32.007 15.333-31.767 42.032-57 74.521-70.486 10.033 21.306 27.601 39.105 51.26 51.757 2.196 1.175 4.849 1.187 7.073 0 23.634-12.639 41.189-30.436 51.227-51.748 22.812 9.448 42.835 24.631 58.207 44.252 2.556 3.263 7.272 3.831 10.529 1.279 3.261-2.555 3.833-7.27 1.279-10.529-14.501-18.51-32.762-33.437-53.487-43.906 52.802-21.653 93.673-66.596 109.761-121.985 28.924-.029 52.447-23.568 52.447-52.499s-23.524-52.471-52.448-52.5zm-365.873 89.806c-18.89-1.92-33.68-17.918-33.68-37.307 0-19.4 14.808-35.405 33.715-37.31-4.991 24.761-4.905 50.254-.035 74.617zm11.351-39.758c.441-31.649 9.392-61.276 24.673-86.689 27.642 28.604 14.212 76.785-24.673 86.689zm269.141 299.01c13.884-8.5 27.378-18.117 39.674-28.219 4.583 12.938 7.253 26.385 7.961 40.158h-47.636v-11.939zm-191.363-.009v11.948h-47.616c.708-13.773 3.377-27.219 7.96-40.157 12.288 10.095 25.776 19.71 39.656 28.209zm95.691-76.605c-16.024-9.229-28.573-21.158-37.005-35.066 12.075 2.397 24.451 3.619 37.003 3.619 12.662 0 25.033-1.264 37.002-3.656-8.431 13.931-20.976 25.873-37 35.103zm148.768-309.132c15.299 25.424 24.26 55.067 24.701 86.735-39.163-9.969-52.093-58.302-24.701-86.735zm36.017 126.497c4.95-24.561 4.958-50.02 0-74.619 18.907 1.904 33.715 17.909 33.715 37.31s-14.808 35.404-33.715 37.309z"/><path d="m178.115 200.172c-4.143 0-7.5 3.357-7.5 7.5v14.966c0 4.143 3.357 7.5 7.5 7.5s7.5-3.357 7.5-7.5v-14.966c0-4.143-3.357-7.5-7.5-7.5z"/><path d="m341.385 222.638v-14.966c0-4.143-3.357-7.5-7.5-7.5s-7.5 3.357-7.5 7.5v14.966c0 4.143 3.357 7.5 7.5 7.5s7.5-3.358 7.5-7.5z"/><path d="m323.19 258.495c-9.495-17.765-26.521-30.136-46.714-33.941-7.34-1.379-14.716.419-20.477 4.699-5.762-4.281-13.142-6.079-20.478-4.699-20.191 3.806-37.218 16.177-46.714 33.942-7.801 14.601-11.925 31.067-11.925 47.621 0 14.451 11.757 26.208 26.207 26.208 14.451 0 26.208-11.757 26.208-26.208 0-7.968 1.984-15.892 5.738-22.916 1.942-3.634 5.754-6.303 10.197-7.14 3.97-.749 7.624-2.359 10.765-4.699 3.141 2.34 6.797 3.95 10.768 4.699 4.441.837 8.254 3.506 10.195 7.138 3.755 7.028 5.739 14.953 5.739 22.918 0 14.451 11.757 26.208 26.208 26.208 14.45 0 26.207-11.757 26.207-26.208.002-16.554-4.122-33.021-11.924-47.622zm-14.281 58.83c-6.18 0-11.208-5.028-11.208-11.208 0-10.421-2.597-20.79-7.51-29.988-4.064-7.602-11.783-13.138-20.646-14.808-3.004-.566-5.59-2.295-7.28-4.865-1.387-2.109-3.742-3.38-6.267-3.38s-4.88 1.271-6.267 3.38c-1.69 2.571-4.275 4.299-7.277 4.865-8.865 1.671-16.583 7.207-20.646 14.81-4.913 9.192-7.51 19.562-7.51 29.986 0 6.18-5.028 11.208-11.208 11.208s-11.207-5.028-11.207-11.208c0-14.096 3.512-28.119 10.154-40.552 7.343-13.736 20.56-23.312 36.263-26.271 4.443-.841 8.941 1.063 11.439 4.848 1.388 2.104 3.74 3.369 6.26 3.369 2.521 0 4.873-1.267 6.261-3.37 2.495-3.783 6.978-5.688 11.438-4.847 15.703 2.96 28.92 12.535 36.263 26.271l-.001-.001c6.644 12.434 10.155 26.456 10.155 40.553.001 6.18-5.026 11.208-11.206 11.208z"/></g></g></svg>