<?xml version="1.0" encoding="utf-8"?>
<!-- Generator: Adobe Illustrator 16.0.0, SVG Export Plug-In . SVG Version: 6.00 Build 0)  -->
<!DOCTYPE svg PUBLIC "-//W3C//DTD SVG 1.1//EN" "http://www.w3.org/Graphics/SVG/1.1/DTD/svg11.dtd">
<svg version="1.1" id="Layer_1" xmlns="http://www.w3.org/2000/svg" xmlns:xlink="http://www.w3.org/1999/xlink" x="0px" y="0px"
	 width="512px" height="512px" viewBox="0 0 512 512" enable-background="new 0 0 512 512" xml:space="preserve">
<g id="Layer_1_1_">
	<g id="Capa_1" display="none">
		<g display="inline">
			<g>
				<path fill="#82888B" d="M471.867,348.529c-6.507-22.813-9.809-46.418-9.809-70.139v-98.854c0-29.846-9.439-59.016-27.364-82.879
					c-7.619-10.143-16.078-19.601-25.271-28.277c-8.337-7.868-19.641-11.807-31.086-11.149c-0.985-9.386-6.511-17.697-14.785-22.239
					c-15.606-8.566-32.354-15.311-49.943-19.985c-6.693-1.778-13.508-3.267-20.433-4.427h-0.001c-24.54-4.111-49.834-4.111-74.377,0
					c-57.731,9.675-108.002,41.263-141.731,86.34c-17.82,23.819-27.15,52.872-27.15,82.616v98.854
					c0,23.721-3.301,47.323-9.809,70.139c-1.821,6.391,0.371,13.229,5.52,17.435c69.578,56.862,156.553,81.362,241.134,73.534
					c64.11-5.933,126.852-30.434,179.589-73.534C471.495,361.757,473.691,354.92,471.867,348.529L471.867,348.529z"/>
				<path fill="#676F72" d="M132.502,224.398c0-81.17,52.25-150.129,124.93-175.053c13.31-4.563,25.854-10.958,37.338-18.932
					c6.656-4.62,12.964-9.77,18.842-15.402c-6.692-1.778-13.507-3.267-20.432-4.427h-0.002c-24.539-4.111-49.833-4.111-74.377,0
					C161.07,20.259,110.799,51.847,77.07,96.924c-17.82,23.819-27.15,52.872-27.15,82.616v98.851
					c0,23.721-3.301,47.327-9.809,70.139c-1.821,6.395,0.371,13.229,5.52,17.438c69.578,56.862,156.553,81.362,241.135,73.534
					v-33.143C199.229,391.746,132.502,316.124,132.502,224.398L132.502,224.398z"/>
			</g>
			<g>
				<g>
					<path fill="#FF8E9E" d="M333.007,427.147c-14.208-17.841-34.368-30.665-57.413-35.368c-6.338-1.293-12.895-1.971-19.606-1.971
						c-31.108,0-58.899,14.59-77.017,37.339c-13.596,17.068-21.745,38.734-21.745,62.286V504.5h98.763h98.765v-15.063
						c0-7.69-0.87-15.187-2.517-22.384C348.846,452.219,342.159,438.642,333.007,427.147z"/>
					<path fill="#FFDDCF" d="M306.345,441.418c10.305-2.375,20.494-5.536,30.335-9.356c-1.178-1.681-2.396-3.313-3.673-4.911
						c-14.208-17.846-34.368-30.668-57.413-35.369c-6.339-1.295-12.895-1.973-19.606-1.973c-31.108,0-58.899,14.59-77.017,37.342
						c-1.275,1.601-2.497,3.231-3.674,4.912c9.836,3.816,20.039,6.981,30.338,9.357
						C238.103,448.904,273.871,448.907,306.345,441.418z"/>
				</g>
				<g>
					<path fill="#EA5B70" d="M247.519,446.86c-14.216-0.521-28.339-2.319-41.885-5.441c-10.291-2.374-20.508-5.544-30.338-9.358
						c-1.821,2.604-3.513,5.301-5.088,8.073c-8.251,14.547-12.983,31.375-12.983,49.302V504.5h23.508h75.254h4.423l-3.354-11.076
						C252.448,478.195,249.26,462.617,247.519,446.86z"/>
					<path fill="#FFCBBE" d="M247.519,446.86c-1.042-9.433-1.564-18.922-1.564-28.442v-28.09
						c-27.012,2.764-50.841,16.547-66.982,36.817c-1.271,1.598-2.502,3.236-3.675,4.912c9.83,3.814,20.047,6.984,30.338,9.358
						C219.18,444.542,233.303,446.343,247.519,446.86L247.519,446.86z"/>
				</g>
				<g>
					<path fill="#FFB357" d="M178.971,427.146c-13.596,17.072-21.745,38.738-21.745,62.29V504.5h63.24
						c-8.45-27.913-12.744-56.917-12.744-86.081V402.54C196.646,408.828,186.885,417.209,178.971,427.146L178.971,427.146z"/>
					<path fill="#FFCE71" d="M333.007,427.146c13.596,17.072,21.745,38.738,21.745,62.29V504.5h-63.24
						c8.45-27.913,12.744-56.917,12.744-86.081V402.54C315.33,408.828,325.093,417.209,333.007,427.146z"/>
				</g>
			</g>
			<g>
				<path fill="#FFCBBE" d="M440.771,179.538H71.207c-24.633,0-44.604,19.969-44.604,44.603c0,24.634,19.969,44.603,44.604,44.603
					H440.77c24.633,0,44.603-19.969,44.603-44.603C485.372,199.507,465.404,179.538,440.771,179.538z"/>
				<path fill="#FFDDCF" d="M286.761,41.924c-10.009-1.678-20.286-2.565-30.773-2.565c-10.484,0-20.763,0.887-30.771,2.565
					c-87.403,14.653-154.01,90.65-154.01,182.217s66.605,167.564,154.01,182.216c10.009,1.679,20.286,2.563,30.771,2.563
					c10.487,0,20.766-0.887,30.773-2.563c87.401-14.653,154.009-90.65,154.009-182.216S374.162,56.578,286.761,41.924
					L286.761,41.924z"/>
				<path fill="#FFCBBE" d="M132.502,224.398c0-91.729,66.727-167.863,154.259-182.474c-10.009-1.678-20.286-2.565-30.773-2.565
					c-10.484,0-20.763,0.887-30.771,2.565c-87.403,14.653-154.01,90.65-154.01,182.217s66.605,167.564,154.01,182.216
					c10.009,1.679,20.286,2.563,30.771,2.563c10.487,0,20.766-0.887,30.773-2.563C199.229,391.746,132.502,316.124,132.502,224.398
					L132.502,224.398z"/>
			</g>
			<g>
				<g>
					<g>
						<g>
							<ellipse fill="#FF8E9E" cx="155.314" cy="284.834" rx="36.956" ry="29.31"/>
						</g>
					</g>
					<g>
						<g>
							<ellipse fill="#FF8E9E" cx="356.661" cy="284.834" rx="36.956" ry="29.31"/>
						</g>
					</g>
				</g>
			</g>
			<g>
				<path fill="#82888B" d="M294.77,30.413c-12.51-2.483-25.47-3.797-38.781-3.797c-88.604,0-165.52,58.984-189.756,142.53
					l10.395,10.393c-3.541,14.284-5.42,29.224-5.42,44.603c0,15.38,1.879,30.318,5.42,44.603c0.014-0.005,0.026-0.009,0.041-0.015
					c-0.013,0.004-0.022,0.008-0.033,0.012c6.043,24.378,16.922,46.854,31.567,66.332v-7.59c0-27.281,9.646-53.299,26.634-73.628
					c8.102-9.695,17.865-18.102,29.063-24.725c45.991-27.198,86.729-62.484,120.22-104.144
					c35.035,47.605,94.958,68.561,151.229,54.553l10.395-10.393C425.621,99.79,367.99,44.944,294.77,30.413L294.77,30.413z"/>
				<path fill="#676F72" d="M257.432,49.345c13.305-4.562,25.854-10.963,37.338-18.932c-12.51-2.483-25.47-3.797-38.777-3.797
					c-88.604,0-165.521,58.984-189.758,142.53l10.395,10.393c-3.541,14.284-5.42,29.224-5.42,44.603
					c0,15.38,1.879,30.318,5.42,44.603c0.014-0.005,0.028-0.009,0.041-0.015c-0.011,0.004-0.022,0.008-0.033,0.012
					C80.25,293,91.355,315.596,106,335.074l2.201-7.59c0-27.281,9.646-53.299,26.634-73.628c-1.536-9.587-2.334-19.426-2.334-29.457
					C132.502,143.228,184.752,74.269,257.432,49.345L257.432,49.345z"/>
			</g>
			<g>
				<path d="M176.407,233.845c-4.145,0-7.5,3.358-7.5,7.5v15.292c0,4.145,3.355,7.5,7.5,7.5c4.143,0,7.5-3.355,7.5-7.5v-15.292
					C183.907,237.203,180.549,233.845,176.407,233.845z"/>
				<path d="M335.571,233.845c-4.145,0-7.5,3.358-7.5,7.5v15.292c0,4.145,3.355,7.5,7.5,7.5s7.5-3.355,7.5-7.5v-15.292
					C343.071,237.203,339.713,233.845,335.571,233.845z"/>
				<path d="M281.898,250.528c-3.123-2.721-7.858-2.396-10.582,0.727c-3.869,4.439-9.455,6.985-15.327,6.985
					c-5.87,0-11.458-2.546-15.325-6.985c-2.725-3.124-7.46-3.448-10.582-0.727c-3.122,2.722-3.448,7.458-0.729,10.582
					c6.719,7.709,16.427,12.135,26.636,12.135s19.917-4.424,26.638-12.135C285.346,257.986,285.02,253.25,281.898,250.528
					L281.898,250.528z"/>
				<path d="M469.553,267.575c0-0.011,0-0.021,0-0.031c14.043-9.344,23.318-25.307,23.318-43.403
					c0-18.11-9.292-34.085-23.355-43.425c-0.896-46.394-16.251-81.272-54.942-117.788c-8.188-7.726-18.775-12.316-30.111-13.124
					c-2.714-9.034-8.873-16.761-17.298-21.384C334.389,10.434,296.373,0,255.989,0v14.983c36.695,0,72.457,9.3,103.958,26.587
					c3.892,2.135,6.954,5.4,8.858,9.276c-5.752,1.041-11.518,2.737-17.226,5.1c-3.825,1.584-5.646,5.971-4.063,9.798
					c1.584,3.828,5.977,5.645,9.8,4.062c7.171-2.968,14.388-4.679,21.448-5.084c9.655-0.549,18.766,2.751,25.51,9.116
					c35.359,33.374,47.917,63.036,49.979,99.983c-8.181-2.194-18.854-2.024-20.729-1.556c-52.161,13.038-106.41-5.44-139.854-47.16
					c11.984-14.689,25.062-29.466,39.742-40.933c3.266-2.55,3.846-7.263,1.296-10.527c-2.553-3.266-7.267-3.843-10.527-1.295
					c-17.415,13.602-32.355,31.078-45.913,47.938c-33.042,41.1-72.807,75.548-118.188,102.388
					c-11.758,6.953-22.188,15.826-31,26.371c-16.957,20.293-28.355,54.811-28.379,85.924v0.002v0.006
					c0,0.029-0.001,0.063-0.001,0.088c0,0.014,0.001,0.021,0.001,0.029c-0.168,14.114,1.508,27.992,4.984,41.25
					c1.054,4.01,5.156,6.401,9.158,5.354c4.007-1.055,6.402-5.151,5.354-9.158c-1.327-5.059-2.347-10.223-3.09-15.457
					c20.509,21.37,45.784,37.864,73.56,47.925c-6.633,5.224-12.562,11.164-17.712,17.672
					c-45.092-11.858-86.313-32.878-122.584-62.521c-2.85-2.327-4.046-6.083-3.054-9.569c9.166-32.131,10.083-57.832,10.121-76.159
					c7.448,2.021,13.68,1.84,19.187,1.818c4.873,0,8.452-4.582,7.278-9.309c-6.946-27.984-6.946-57.583,0-85.591
					c1.175-4.731-2.413-9.306-7.278-9.306c-4.534,0-11.092-0.303-18.903,1.762c1.596-28.654,9.595-51.328,25.353-72.385
					c41.427-55.365,105.488-86.435,172.916-86.435V0C184.022,0,115.475,33.076,71.064,92.43
					c-18.788,25.107-27.921,53.246-28.602,88.247c-14.691,9.646-23.336,25.586-23.336,43.472c0,17.863,8.631,33.787,23.301,43.434
					c0,0.142,0.001,0.276,0.001,0.417c0.078,18.738,0.186,44.4-9.532,78.473c-2.639,9.25,0.495,19.18,7.984,25.299
					c36.582,29.896,77.978,51.405,123.178,64.033c-9.25,16.084-14.333,34.531-14.333,53.637v15.06c0,4.142,3.357,7.5,7.5,7.5H354.75
					c4.143,0,7.5-3.358,7.5-7.5v-15.063c0-1.789-0.047-3.605-0.136-5.396c-0.206-4.137-3.694-7.326-7.862-7.118
					c-4.139,0.206-7.323,3.729-7.117,7.864c0.076,1.542,0.113,3.104,0.113,4.648V497H301.44
					c7.317-27.442,10.245-52.23,10.318-80.408c13.643,10.668,23.966,24.856,29.896,41.103c1.421,3.891,5.725,5.894,9.614,4.474
					c3.893-1.42,5.896-5.726,4.476-9.617c-2.129-5.833-4.753-11.434-7.819-16.761c45.213-12.631,86.604-34.138,123.168-64.019
					c7.488-6.121,10.624-16.051,7.982-25.301C469.43,312.634,469.497,287.65,469.553,267.575L469.553,267.575z M34.126,224.148
					c0-13.814,7.231-26.001,19.35-32.607c0.013-0.007,0.026-0.015,0.04-0.022c5.079-2.761,9.603-3.842,13.727-4.254
					c-4.725,24.298-4.727,49.452-0.007,73.736c-4.146-0.418-8.678-1.498-13.72-4.237c-0.013-0.008-0.024-0.016-0.04-0.021
					C41.36,250.134,34.126,237.953,34.126,224.148L34.126,224.148z M164.726,497v-7.563c0-19.672,6.25-38.536,17.43-54.07
					c0.017-0.022,0.032-0.041,0.048-0.063c5.044-6.996,11.087-13.313,18.013-18.723c0.078,28.269,2.998,52.974,10.319,80.423
					L164.726,497L164.726,497z M285.867,497H226.11c-4.208-14.934-7.218-30.247-8.981-45.703c24.763,4.127,51.454,4.379,77.725,0
					C293.085,466.753,290.075,482.065,285.867,497z M296.225,435.841c-26.146,4.869-54.313,4.869-80.47,0
					c-0.505-8.197-0.551-14.823-0.543-23.803c13.38,2.896,27.051,4.384,40.775,4.384c13.989,0,27.63-1.516,40.774-4.365
					C296.775,420.909,296.727,427.716,296.225,435.841z M255.989,401.423c-56.389,0-107.53-26.618-140.258-68.868
					c0.599-26.832,10.651-56.887,24.861-73.891c7.715-9.232,16.842-16.997,27.125-23.079
					c44.246-26.165,83.321-59.329,116.282-98.648c34.983,41.81,90.664,62.405,145.683,51.551
					c2.386,11.683,3.592,23.643,3.592,35.653C433.271,321.895,353.741,401.423,255.989,401.423L255.989,401.423z M461.604,360.156
					c-36.254,29.629-77.473,50.642-122.579,62.507c-5.178-6.522-11.133-12.442-17.756-17.656
					c57.924-20.971,102.986-69.014,119.826-128.771c4.652-0.029,9.162-0.676,13.453-1.855c0.061,19.174,1.001,44.278,10.106,76.205
					C465.651,354.072,464.451,357.828,461.604,360.156z M444.704,261.033c2.331-11.944,3.565-24.276,3.565-36.892
					c0-12.416-1.211-24.782-3.563-36.892c18.613,1.973,33.165,17.763,33.165,36.892C477.872,243.271,463.32,259.063,444.704,261.033
					L444.704,261.033z"/>
			</g>
		</g>
		
			<path display="inline" fill="none" stroke="#000000" stroke-width="15" stroke-linecap="round" stroke-linejoin="round" stroke-miterlimit="10" d="
			M345.931,448.302c0,0,8.823,16.448,8.821,44.448"/>
	</g>
	<g id="girl-7" display="none">
		<path display="inline" fill="#432B1F" d="M107.811,366.27c17.153,47.849-9.739,135.907-9.739,135.907h155.474V231.635
			L82.918,264.339C82.921,264.337,92.301,323.005,107.811,366.27z"/>
		<path display="inline" fill="#432B1F" d="M399.43,366.27c-17.153,47.849,9.74,135.907,9.74,135.907H253.696V231.635
			l170.623,32.704C424.317,264.337,414.939,323.005,399.43,366.27z"/>
		<g display="inline">
			<rect x="217.473" y="389.632" fill="#FDCC9B" width="72.146" height="80.801"/>
			<path fill="#FCBC85" d="M217.473,399.148c0,0,30.347,19.326,72.146,14.851v-24.367h-72.146V399.148L217.473,399.148z"/>
			<ellipse fill="#FCBC85" cx="113.44" cy="264.337" rx="35.203" ry="40.163"/>
			<ellipse fill="#FCBC85" cx="393.646" cy="264.337" rx="35.2" ry="40.163"/>
			<path fill="#FDCC9B" d="M393.504,187.626c0-59.157-43.287-102.446-139.958-102.446c-96.676,0-139.96,43.287-139.96,102.446
				s-10.102,214.993,139.96,214.993C403.604,402.617,393.504,246.786,393.504,187.626z"/>
			<g>
				<g>
					<ellipse fill="#3B2519" cx="185.374" cy="254.72" rx="15.149" ry="16.593"/>
					<circle fill="#FFFFFF" cx="178.768" cy="247.395" r="4.531"/>
				</g>
				<path fill="#51362A" d="M161.139,218.944c7.161,2.743,18.667-9.322,44.997,1.172c4.801,1.915,7.668-16.365-20.56-16.365
					C161.139,203.752,156.81,217.287,161.139,218.944z"/>
				<g>
					<ellipse fill="#3B2519" cx="323.585" cy="254.72" rx="15.149" ry="16.593"/>
					<circle fill="#FFFFFF" cx="316.98" cy="247.395" r="4.533"/>
				</g>
				<path fill="#51362A" d="M345.95,218.944c-7.165,2.743-18.666-9.322-45.001,1.172c-4.797,1.915-7.662-16.365,20.563-16.365
					C345.95,203.752,350.279,217.287,345.95,218.944z"/>
			</g>
			<path fill="#FCBC85" d="M253.543,313.086c-14.974,0-23.988-11.184-23.988-5.771c0,5.41,4.33,15.692,23.988,15.692
				s23.984-10.282,23.984-15.692C277.531,301.902,268.516,313.086,253.543,313.086z"/>
			<path fill="#FCBC85" d="M253.543,362.837c-5.176,0-8.298-3.868-8.298-1.994c0,1.872,1.497,5.427,8.298,5.427
				c6.8,0,8.297-3.555,8.297-5.427C261.841,358.969,258.723,362.837,253.543,362.837z"/>
			<path fill="#F7945E" d="M253.543,349.052c-23.729,0-38.025-9.659-38.025-7.213c0,2.448,6.862,12.084,38.025,12.084
				s38.021-9.636,38.021-12.084C291.564,339.389,277.271,349.052,253.543,349.052z"/>
		</g>
		<path display="inline" fill="#694B74" d="M253.543,422.097V513H95.552C95.552,476.205,170.577,422.097,253.543,422.097z"/>
		<path display="inline" fill="#694B74" d="M253.543,422.097V513h157.988C411.531,476.205,336.51,422.097,253.543,422.097z"/>
		<path display="inline" fill="#563C60" d="M253.074,422.097c-17.847,0-36.116,2.47-53.831,6.679
			c0.119,0.152,19.647,25.066,53.831,25.066c31.654,0,52.698-21.336,55.749-24.617C290.516,424.73,271.566,422.097,253.074,422.097z
			"/>
		<path display="inline" fill="#FDCC9B" d="M217.473,425.243c0,0,10.55,13.086,36.071,13.086c25.521,0,36.069-13.086,36.069-13.086
			S252.192,411.617,217.473,425.243z"/>
		<path display="inline" fill="#51362A" d="M380.519,62.817C289.614-45.402,116.47-2.115,78.235,147.226
			C40.005,296.564,107.81,366.268,107.81,366.268c-26.001-88.012,34.63-179,86.574-180.083
			c51.946-1.082,134.19-30.301,134.19-30.301s13.806,70.248,58.438,96.043c33.547,19.39,20.806,76.388,12.146,114.345
			C431.62,353.921,527.691,107.186,380.519,62.817z"/>
		<g display="inline">
			<g>
				<g>
					<g>
						<ellipse fill="#FFBD86" cx="174.271" cy="282.141" rx="30.127" ry="7.328"/>
					</g>
				</g>
				<g>
					<g>
						<ellipse fill="#FFBD86" cx="338.414" cy="282.141" rx="30.129" ry="7.328"/>
					</g>
				</g>
			</g>
		</g>
	</g>
</g>
<g>
	<g>
		<rect x="219.134" y="386.035" fill="#FDCC9B" width="74.006" height="82.89"/>
		<path fill="#FCBC85" d="M219.136,395.798c0,0,31.128,19.823,74.003,15.231v-24.998h-74.003V395.798L219.136,395.798z"/>
		<ellipse fill="#FCBC85" cx="112.419" cy="257.509" rx="36.109" ry="41.199"/>
		<ellipse fill="#FCBC85" cx="399.857" cy="257.509" rx="36.109" ry="41.199"/>
		<path fill="#FDCC9B" d="M399.71,178.817c0-60.684-44.404-105.088-143.57-105.088c-99.17,0-143.572,44.404-143.572,105.088
			c0,60.686-10.36,220.541,143.572,220.541C410.07,399.355,399.71,239.502,399.71,178.817z"/>
		<g>
			<g>
				<ellipse fill="#3B2519" cx="186.207" cy="247.644" rx="15.542" ry="17.022"/>
				<circle fill="#FFFFFF" cx="179.432" cy="240.127" r="4.647"/>
			</g>
			<path fill="#342620" d="M161.345,205.458c7.35,3.676,19.149-12.488,46.161,1.574c4.924,2.563,7.862-21.924-21.09-21.924
				C161.345,185.108,156.906,203.241,161.345,205.458z"/>
			<g>
				<ellipse fill="#3B2519" cx="327.99" cy="247.644" rx="15.542" ry="17.022"/>
				<circle fill="#FFFFFF" cx="321.211" cy="240.127" r="4.647"/>
			</g>
			<path fill="#342620" d="M350.931,205.458c-7.351,3.676-19.152-12.488-46.161,1.574c-4.925,2.563-7.861-21.924,21.091-21.924
				C350.931,185.108,355.369,203.241,350.931,205.458z"/>
		</g>
		<path fill="#FCBC85" d="M256.14,307.516c-15.356,0-24.607-11.474-24.607-5.923c0,5.55,4.44,16.099,24.607,16.099
			s24.604-10.547,24.604-16.099C280.744,296.042,271.493,307.516,256.14,307.516z"/>
		<path fill="#FCBC85" d="M256.14,358.551c-5.313,0-8.512-3.969-8.512-2.047c0,1.921,1.533,5.568,8.512,5.568
			c6.974,0,8.51-3.647,8.51-5.568C264.651,354.582,261.449,358.551,256.14,358.551z"/>
		<path fill="#F7945E" d="M256.14,344.406c-24.343,0-39.006-9.915-39.006-7.399c0,2.511,7.04,12.396,39.006,12.396
			c31.963,0,39.003-9.885,39.003-12.396C295.144,334.493,280.481,344.406,256.14,344.406z"/>
	</g>
	<path fill="#F6A4B7" d="M256.14,419.336v93.25H76.309C76.309,474.844,171.031,419.336,256.14,419.336z"/>
	<path fill="#F6A4B7" d="M256.14,419.336v93.25h179.829C435.966,474.844,341.243,419.336,256.14,419.336z"/>
	<path fill="#FDCC9B" d="M219.134,422.564c0,0,10.823,13.424,37.001,13.424s37.001-13.424,37.001-13.424
		S254.751,408.59,219.134,422.564z"/>
	<path fill="#665853" d="M203.964,512.586l-7.654-85.108c0,0-16.253-2.242-35.789,11.946l-16.225,73.162H203.964z"/>
	<polygon fill="#665853" points="256.137,435.988 256.137,512.586 230.606,512.586 235.601,477.341 220.894,461.797 	"/>
	<path fill="#665853" d="M308.311,512.586l7.654-85.108c0,0,16.253-2.242,35.788,11.946l16.224,73.162H308.311z"/>
	<polygon fill="#665853" points="256.14,435.988 256.14,512.586 281.669,512.586 276.675,477.341 291.385,461.797 	"/>
	<path fill="#F2788F" d="M293.14,413.418l-37.002,22.572l39.006,38.854l28.978-45.096
		C324.121,429.747,305.166,411.096,293.14,413.418z"/>
	<path fill="#F2788F" d="M219.134,413.418l37.001,22.572l-39.004,38.854l-28.979-45.096
		C188.156,429.747,207.11,411.096,219.134,413.418z"/>
	<path fill="#342620" d="M414.881,73.356c-3.484-6.865-13.32-7.77-18.502-10.73c-5.185-2.961-5.185-15.542-14.803-20.72
		c-9.619-5.181-11.103,2.96-17.834,1.481c-6.735-1.481-13.251-14.802-22.136-17.762c-8.889-2.963-17.019,2.96-23.678,1.478
		c-6.658-1.478-11.101-15.542-22.789-14.799c-11.688,0.739-11.994,8.879-14.398,8.14c-2.401-0.738-10.174-19.239-24.603-19.239
		c-14.432,0-22.204,18.501-24.608,19.242c-2.404,0.741-2.707-7.399-14.397-8.14c-11.69-0.743-16.128,13.32-22.791,14.799
		c-6.661,1.483-14.789-4.441-23.676-1.478c-8.885,2.961-15.4,16.282-22.137,17.762c-6.731,1.479-8.212-6.662-17.835-1.481
		c-9.617,5.182-9.617,17.762-14.798,20.721c-5.184,2.96-15.018,3.865-18.505,10.73c-12.581,24.794,9.93,199.646,19.637,199.646
		c9.706,0,4.047-89.007,18.848-123.049c14.799-34.042,71.786-4.44,120.261-4.44c48.473,0,105.458-29.603,120.262,4.44
		c14.798,34.041,9.139,123.049,18.844,123.049C404.949,273.001,427.462,98.151,414.881,73.356z"/>
</g>
</svg>
