<?xml version="1.0" encoding="utf-8"?>
<!-- Generator: Adobe Illustrator 16.0.0, SVG Export Plug-In . SVG Version: 6.00 Build 0)  -->
<!DOCTYPE svg PUBLIC "-//W3C//DTD SVG 1.1//EN" "http://www.w3.org/Graphics/SVG/1.1/DTD/svg11.dtd">
<svg version="1.1" id="Layer_1" xmlns="http://www.w3.org/2000/svg" xmlns:xlink="http://www.w3.org/1999/xlink" x="0px" y="0px"
	 width="512px" height="512px" viewBox="0 0 512 512" enable-background="new 0 0 512 512" xml:space="preserve">
<path fill="#E8E8E8" d="M220.719,504.5l-7.809-60.102l7.809-40.094h70.563l12.021,58.42L291.282,504.5H220.719z"/>
<path fill="#282C33" d="M331.172,424.887c5.965,7.691,12.215,17.527,17.203,29.518c3.063,7.352,5.656,15.512,7.383,24.477
	c1.563,7.922,2.457,16.457,2.457,25.621h-49.047l-17.887-39.809L331.172,424.887z"/>
<path fill="#282C33" d="M180.828,424.887c-5.965,7.691-12.215,17.527-17.203,29.518c-3.063,7.352-5.656,15.512-7.383,24.477
	c-1.563,7.922-2.457,16.457-2.457,25.621h49.047l17.887-39.809L180.828,424.887z"/>
<path fill="#394048" d="M315.379,7.5c-83.676,0-125.5,26.211-138.969,36.785c-3.375,2.648-7.711,3.742-11.938,3.004
	C60.125,29.063,19.282,112.836,40.305,227.301l7.043,11.801h398.051l26.297-11.801C501.957,80.219,420.199,7.5,315.379,7.5z"/>
<path fill="#31363E" d="M152.649,45.645C57.067,35.613,20.094,117.27,40.305,227.301l7.043,11.801h30l-7.043-11.801
	C52.364,129.633,79.485,54.324,152.649,45.645z"/>
<path fill="#31363E" d="M327.059,472.199c0,0-3.479,16.896-17.891,32.301h-17.887v-32.301c8.387-5.863,15.145-11.975,20.539-17.797
	L327.059,472.199z"/>
<path fill="#394048" d="M331.172,424.887c0,0-4.602,13.633-19.348,29.518c-5.398,5.822-12.156,11.934-20.543,17.797v-67.898h19.559
	c0,0,9.699,6.867,20.324,20.563L331.172,424.887z"/>
<path fill="#31363E" d="M184.942,472.199c0,0,3.477,16.896,17.891,32.301h17.887v-32.301c-8.387-5.863-15.145-11.975-20.543-17.797
	L184.942,472.199z"/>
<path fill="#394048" d="M180.828,424.887c0,0,4.602,13.633,19.348,29.518c5.398,5.822,12.156,11.934,20.543,17.797v-67.898H201.16
	c0,0-9.699,6.867-20.324,20.563L180.828,424.887z"/>
<path fill="#D05E60" d="M272.398,504.5l-6.892-65.426h-19.016L239.6,504.5H272.398z"/>
<path fill="#E16668" d="M270.234,401.828h-27.478l-1.676,28.063c-0.191,3.234,1.313,6.336,3.973,8.186l7.164,4.979
	c2.57,1.789,5.984,1.789,8.56,0l7.16-4.979c2.66-1.85,4.168-4.949,3.974-8.186L270.234,401.828z"/>
<path fill="#FFBD86" d="M483.457,254.797c0,21.02-17.039,38.059-38.059,38.059c-21.018,0-38.057-17.039-38.057-38.059
	c0-21.016,17.039-38.055,38.057-38.055C466.418,216.742,483.457,233.781,483.457,254.797z"/>
<path fill="#FED2A4" d="M441.582,185.824c-1.277-5.785-7.07-9.383-12.789-7.848c-21.863,5.879-75.742,15.434-123.531-15.398
	c-90.801-55.727-194.859-28.426-234.91,46.016c-2.789,5.184-4.246,10.98-4.246,16.867v0.086
	c0,103.098,85.02,186.672,189.895,186.672c104.879,0,189.896-83.578,189.896-186.672
	C445.895,211.914,444.407,198.625,441.582,185.824z"/>
<path fill="#FFBD86" d="M96.102,225.547c0-5.941,1.469-11.793,4.285-17.023c23.234-43.125,67.965-70.414,119.145-74.875
	c-63.293-5.406-121.512,23.516-149.18,74.941c-1.395,2.59-2.453,5.336-3.168,8.168c-0.195-0.004-0.387-0.016-0.586-0.016
	c-21.016,0-38.055,17.039-38.055,38.055c0,21.02,17.039,38.059,38.055,38.059c4.355,0,8.145-0.742,11.43-2.086
	c26.914,70.926,96.438,121.449,177.973,121.449c5.047,0,10.051-0.199,15-0.578C173.137,404.121,96.102,323.68,96.102,225.547z"/>
<path fill="#E98E8F" d="M361.625,290.488h-24.703c-4.141,0-7.5-3.359-7.5-7.5s3.359-7.5,7.5-7.5h24.703c4.141,0,7.5,3.359,7.5,7.5
	S365.766,290.488,361.625,290.488z"/>
<path fill="#E98E8F" d="M175.078,290.488h-24.703c-4.141,0-7.5-3.359-7.5-7.5s3.359-7.5,7.5-7.5h24.703c4.141,0,7.5,3.359,7.5,7.5
	S179.219,290.488,175.078,290.488z"/>
<path d="M349.274,263.832c4.141,0,7.5-3.359,7.5-7.5v-16.125c0-4.145-3.359-7.5-7.5-7.5c-4.143,0-7.5,3.355-7.5,7.5v16.125
	C341.774,260.473,345.133,263.832,349.274,263.832z"/>
<path d="M162.727,263.832c4.141,0,7.5-3.359,7.5-7.5v-16.125c0-4.145-3.359-7.5-7.5-7.5c-4.145,0-7.5,3.355-7.5,7.5v16.125
	C155.227,260.473,158.582,263.832,162.727,263.832z"/>
<path d="M277.617,268.938c-3.117-2.727-7.855-2.41-10.582,0.707c-2.676,3.063-6.699,4.82-11.035,4.82
	c-4.34,0-8.363-1.758-11.039-4.82c-2.727-3.117-7.465-3.434-10.582-0.707c-3.117,2.725-3.438,7.461-0.711,10.582
	c5.527,6.32,13.664,9.945,22.332,9.945c8.664,0,16.805-3.625,22.328-9.945C281.055,276.398,280.738,271.66,277.617,268.938z"/>
<path d="M66.602,300.355c2.359,0,4.707-0.186,7.023-0.543c20.848,49.357,61.824,88.486,112.797,107.438
	c-3.426,3.391-7.406,7.73-11.512,13.02c-0.02,0.027-0.039,0.061-0.063,0.086c-18.473,24.213-28.563,53.674-28.563,84.146
	c0,4.146,3.355,7.5,7.5,7.5h204.43c4.142,0,7.5-3.355,7.5-7.5c0-36.203-14.358-71.711-40.137-97.25
	c50.973-18.949,91.949-58.078,112.797-107.438c2.316,0.362,4.664,0.543,7.022,0.543c25.12,0,45.56-20.438,45.56-45.556
	c0-11.367-4.223-21.789-11.172-29.789c13.453-69.195,3.172-127.082-29.844-167.586C419.754,20.395,371.965,0,315.379,0
	c-85.48,0-128.902,26.844-143.602,38.387c-1.699,1.332-3.895,1.887-6.016,1.516c-40.43-7.063-74.52,0.535-98.574,21.977
	c-3.094,2.754-3.363,7.496-0.609,10.586c2.758,3.094,7.5,3.367,10.59,0.609c20.805-18.543,49.746-24.73,86.016-18.395
	c6.313,1.102,12.816-0.539,17.855-4.496C194.512,39.605,234.578,15,315.379,15c51.992,0,95.652,18.434,122.934,51.902
	c28.906,35.457,38.57,86.285,28.178,147.512c-4.293-2.246-8.922-3.793-13.734-4.574c-0.488-5.984-1.332-11.918-2.332-17.832
	c-1.262-7.535-2.676-15.016-9.733-19.301c-6.327-3.844-12.591-2.164-19.31-0.609c-20.227,4.684-59.129,9.746-96.633-7.387
	c-9.754-4.457-18.578-10.656-28.053-15.645c-43.471-22.996-90.857-29.477-135.127-18.293c-40.176,10.148-83.98,38.766-99.902,78.73
	c-4.109,0.445-16.008,4.176-15.918,4.781c-7.234-48.801-2.336-90.926,14.059-119.539c2.059-3.594,0.816-8.176-2.777-10.234
	c-3.593-2.058-8.18-0.816-10.238,2.777c-19.302,33.689-24.299,81.216-14.525,137.614c-6.981,8.008-11.223,18.461-11.223,29.895
	C21.043,279.918,41.481,300.355,66.602,300.355z M68.145,285.316c-0.512,0.025-1.027,0.039-1.543,0.039
	c-16.852,0-30.559-13.707-30.559-30.56c0-13.43,9.457-25.84,22.371-29.441c0.063-0.016,0.125-0.031,0.191-0.051
	c0,0.082-0.004,0.164-0.004,0.242c0,8.309,0.539,16.617,1.613,24.855C61.758,262.262,64.399,273.93,68.145,285.316z
	 M213.219,415.129v41.57c-1.449-1.293-2.859-2.629-4.238-3.996c-7.738-7.688-14.742-16.664-19.492-26.625
	c5.457-6.539,10.406-11.066,13.313-13.512C204.184,412.949,211.125,414.672,213.219,415.129z M161.5,497
	c0.328-5.672,1.031-11.262,2.102-16.699c2.844-14.426,8.293-28.246,16.094-40.707c3.098,5.25,6.648,10.195,10.551,14.875
	c-3.988,4.66-14.07,12.35-12.652,19.242c1.129,5.469,3.383,10.824,5.855,15.809c1.273,2.561,2.672,5.061,4.195,7.48H161.5z
	 M213.219,497h-7.023c-1.551-1.828-2.992-3.727-4.348-5.707c-3.629-5.316-6.586-11.145-8.602-17.266l7.332-8.563
	c0.23,0.219,8.48,7.5,12.641,10.578V497z M228.219,417.797c0.43,0.059,5.125,0.641,6.027,0.734l-0.652,10.91
	c-0.289,4.854,1.59,9.604,5.004,12.977L232.848,497h-4.629L228.219,417.797L228.219,417.797z M283.782,417.797V497h-4.634
	l-5.66-53.754c3.979-3.391,6.224-8.535,5.91-13.805l-0.66-11.021C279.988,418.281,283.348,417.855,283.782,417.797z
	 M256.496,436.895l-7.16-4.977c-0.512-0.354-0.805-0.961-0.766-1.582l0.641-10.738c0.281,0.012,9.996,0.146,14.57-0.031
	l0.641,10.771c0.039,0.621-0.254,1.228-0.766,1.582L256.496,436.895z M247.934,497l4.801-45.578c0.043,0.008,0.09,0.018,0.137,0.023
	c2.059,0.516,4.315,0.594,6.418,0.189L264.066,497H247.934z M298.782,476.043c0.236-0.18,8.875-7.016,12.637-10.578l7.332,8.563
	c-1.465,4.457-4.81,12.729-11.397,21.082c-0.504,0.641-1.022,1.27-1.552,1.891h-7.02V476.043z M348.403,480.328
	c1.064,5.418,1.77,11,2.098,16.672h-26.146c3.173-5.047,5.823-10.418,7.862-16.02c1.563-4.281,3.975-9.643,0.535-13.656
	l-11.004-12.859c-0.055-0.064,1.617-1.988,1.715-2.113c3.73-4.689,6.629-9.051,8.828-12.775
	C340.09,452.027,345.617,465.898,348.403,480.328z M309.207,412.566c2.895,2.426,7.813,6.922,13.305,13.508
	c-0.02,0.043-0.043,0.09-0.063,0.133c-4.797,9.926-11.625,18.758-19.435,26.5c-1.38,1.367-2.789,2.703-4.233,3.992v-41.57
	C301.195,414.602,308.137,412.859,309.207,412.566z M305.895,397.902c-0.012,0.004-0.021,0.004-0.034,0.008
	c-31.31,8.172-64.354,9.078-95.79,1.051c-72.551-18.559-127.668-80-135.508-155.051c-0.641-6.129-0.961-12.289-0.961-18.449
	c0.004-4.402,1.063-8.773,3.043-12.695c16.613-32.828,48.766-56.094,83.691-66.133c43.184-12.414,90.004-5.152,129.371,15.711
	c9.645,5.109,18.652,11.355,28.598,15.918c33.133,15.191,71.393,16.617,106.57,8.426c1.945-0.453,3.973-0.836,5.871-1.469
	c1.656-0.551,3.211,0.855,3.551,2.398c4.34,19.77,5.234,40.34,2.668,60.414c-0.02,0.152-0.039,0.305-0.059,0.453
	C427.555,320.063,375.035,378.563,305.895,397.902z M445.399,285.355c-0.518,0-1.031-0.014-1.549-0.039
	c3.746-11.387,6.393-23.055,7.936-34.916c0.012-0.109,0.025-0.219,0.043-0.328c1.039-8.129,1.564-16.332,1.564-24.527
	c0-0.078,0-0.156,0-0.234c0.021,0.008,0.035,0.012,0.057,0.016c12.943,3.555,22.508,15.449,22.508,29.469
	C475.957,271.648,462.25,285.355,445.399,285.355z"/>
<path fill="none" stroke="#000000" stroke-width="15" stroke-miterlimit="10" d="M48.048,101.411c0,0,11.871-31.029,41.162-45.72"/>
</svg>
