<svg id="Capa_1" enable-background="new 0 0 512 512" height="512" viewBox="0 0 512 512" width="512" xmlns="http://www.w3.org/2000/svg"><g><g><path d="m471.869 348.529c-6.507-22.812-9.807-46.417-9.807-70.138v-98.852c0-29.846-9.441-59.016-27.366-82.879-7.619-10.143-16.078-19.601-25.271-28.277-8.337-7.868-19.639-11.807-31.086-11.149-.985-9.386-6.509-17.697-14.785-22.239-15.608-8.566-32.352-15.311-49.945-19.985-6.694-1.778-13.506-3.267-20.431-4.427h-.001c-24.54-4.111-49.834-4.111-74.377 0-57.731 9.675-108.002 41.263-141.731 86.34-17.822 23.819-27.152 52.872-27.152 82.616v98.851c0 23.721-3.301 47.327-9.807 70.139-1.823 6.391.371 13.229 5.518 17.435 69.578 56.862 156.553 81.362 241.134 73.534 64.112-5.933 126.85-30.433 179.589-73.534 5.146-4.207 7.34-11.044 5.518-17.435z" fill="#ffb39d"/><path d="m132.502 224.398c0-81.17 52.25-150.129 124.93-175.053 13.306-4.563 25.851-10.958 37.338-18.932 6.656-4.62 12.962-9.77 18.84-15.402-6.694-1.778-13.506-3.267-20.431-4.427h-.001c-24.54-4.111-49.834-4.111-74.377 0-57.731 9.675-108.002 41.263-141.731 86.34-17.822 23.819-27.152 52.872-27.152 82.616v98.851c0 23.721-3.301 47.327-9.807 70.139-1.823 6.391.371 13.229 5.518 17.435 69.578 56.862 156.553 81.362 241.134 73.534v-33.139c-87.534-14.614-154.261-90.236-154.261-181.962z" fill="#ff8f71"/></g><g><g><path d="m333.007 427.147c-14.208-17.841-34.368-30.665-57.413-35.367-6.338-1.293-12.895-1.972-19.606-1.972-31.11 0-58.901 14.59-77.017 37.339-13.596 17.072-21.745 38.738-21.745 62.29v15.063h98.763 98.763v-15.063c0-7.694-.87-15.187-2.515-22.384-3.391-14.834-10.076-28.411-19.23-39.906z" fill="#ff8e9e"/><path d="m306.345 441.418c10.303-2.375 20.494-5.536 30.335-9.356-1.178-1.681-2.396-3.313-3.673-4.915-14.208-17.842-34.368-30.665-57.413-35.367-6.339-1.293-12.895-1.972-19.606-1.972-31.11 0-58.901 14.59-77.017 37.339-1.275 1.601-2.497 3.235-3.674 4.915 9.836 3.817 20.039 6.982 30.338 9.358 32.468 7.484 68.236 7.487 100.71-.002z" fill="#ffddcf"/></g><g><path d="m247.519 446.86c-14.216-.517-28.339-2.319-41.885-5.441-10.291-2.374-20.508-5.544-30.338-9.358-1.821 2.604-3.513 5.297-5.088 8.073-8.251 14.547-12.983 31.375-12.983 49.302v15.064h23.508 75.254 4.421l-3.352-11.076c-4.608-15.229-7.796-30.807-9.537-46.564z" fill="#ea5b70"/><path d="m247.519 446.86c-1.042-9.429-1.566-18.922-1.566-28.442v-28.09c-27.01 2.764-50.839 16.547-66.982 36.818-1.272 1.597-2.502 3.239-3.675 4.915 9.83 3.814 20.047 6.984 30.338 9.358 13.546 3.123 27.669 4.924 41.885 5.441z" fill="#ffcbbe"/></g><g><path d="m178.971 427.146c-13.596 17.072-21.745 38.738-21.745 62.29v15.064h63.24c-8.45-27.913-12.744-56.917-12.744-86.081v-15.879c-11.076 6.288-20.837 14.669-28.751 24.606z" fill="#ffb357"/><path d="m333.007 427.146c13.596 17.072 21.745 38.738 21.745 62.29v15.064h-63.24c8.45-27.913 12.744-56.917 12.744-86.081v-15.879c11.076 6.288 20.837 14.669 28.751 24.606z" fill="#ffce71"/></g></g><g><path d="m440.771 179.538h-369.564c-24.633 0-44.603 19.969-44.603 44.603s19.969 44.603 44.603 44.603h369.564c24.633 0 44.603-19.969 44.603-44.603s-19.97-44.603-44.603-44.603z" fill="#ffcbbe"/><path d="m286.761 41.924c-10.009-1.678-20.287-2.565-30.773-2.565s-20.763.887-30.772 2.565c-87.403 14.653-154.01 90.65-154.01 182.217s66.607 167.564 154.01 182.217c10.009 1.678 20.286 2.565 30.772 2.565s20.764-.887 30.773-2.565c87.403-14.654 154.009-90.651 154.009-182.217s-66.606-167.563-154.009-182.217z" fill="#ffddcf"/><path d="m132.502 224.398c0-91.729 66.727-167.863 154.259-182.474-10.009-1.678-20.287-2.565-30.773-2.565s-20.763.887-30.772 2.565c-87.403 14.653-154.01 90.65-154.01 182.217s66.607 167.564 154.01 182.217c10.009 1.678 20.286 2.565 30.772 2.565s20.764-.887 30.773-2.565c-87.532-14.612-154.259-90.234-154.259-181.96z" fill="#ffcbbe"/></g><g><g><g><g><ellipse cx="155.314" cy="284.834" fill="#ff8e9e" rx="36.956" ry="29.31"/></g></g><g><g><ellipse cx="356.663" cy="284.834" fill="#ff8e9e" rx="36.956" ry="29.31"/></g></g></g></g><g><path d="m294.77 30.413c-12.51-2.483-25.47-3.797-38.781-3.797-88.604 0-165.52 58.984-189.756 142.53l10.393 10.393c-3.541 14.284-5.42 29.224-5.42 44.603 0 15.38 1.879 30.318 5.42 44.603.014-.005.028-.009.041-.014-.011.004-.022.008-.033.011 6.043 24.378 16.922 46.854 31.567 66.332v-7.589c0-27.282 9.646-53.3 26.634-73.629 8.102-9.695 17.865-18.102 29.063-24.725 45.991-27.198 86.727-62.484 120.218-104.144 35.037 47.605 94.96 68.561 151.233 54.553l10.393-10.393c-20.119-69.357-77.75-124.203-150.972-138.734z" fill="#ffb39d"/><path d="m257.432 49.345c13.304-4.562 25.851-10.963 37.338-18.932-12.51-2.483-25.47-3.797-38.781-3.797-88.604 0-165.52 58.984-189.756 142.53l10.393 10.393c-3.541 14.284-5.42 29.224-5.42 44.603 0 15.38 1.879 30.318 5.42 44.603.014-.005.028-.009.041-.014-.011.004-.022.008-.033.011 6.043 24.378 16.922 46.854 31.567 66.332v-7.589c0-27.282 9.646-53.3 26.634-73.629-1.536-9.587-2.334-19.426-2.334-29.457.001-81.171 52.251-150.13 124.931-175.054z" fill="#ff8f71"/></g><g><path d="m176.407 233.845c-4.143 0-7.5 3.358-7.5 7.5v15.292c0 4.142 3.357 7.5 7.5 7.5s7.5-3.358 7.5-7.5v-15.292c0-4.142-3.358-7.5-7.5-7.5z"/><path d="m335.571 233.845c-4.143 0-7.5 3.358-7.5 7.5v15.292c0 4.142 3.357 7.5 7.5 7.5s7.5-3.358 7.5-7.5v-15.292c0-4.142-3.358-7.5-7.5-7.5z"/><path d="m281.898 250.528c-3.122-2.721-7.86-2.396-10.582.727-3.869 4.439-9.455 6.985-15.327 6.985s-11.458-2.546-15.327-6.985c-2.723-3.124-7.46-3.448-10.582-.727-3.122 2.722-3.448 7.459-.727 10.582 6.719 7.709 16.427 12.131 26.636 12.131s19.917-4.421 26.636-12.131c2.721-3.123 2.395-7.86-.727-10.582z"/><path d="m469.553 267.575c0-.01 0-.02 0-.031 14.043-9.344 23.32-25.307 23.32-43.403 0-18.11-9.292-34.085-23.357-43.425-.896-46.394-16.251-81.272-54.944-117.788-8.186-7.726-18.777-12.316-30.113-13.124-2.712-9.034-8.873-16.761-17.296-21.384-32.774-17.986-70.79-28.42-111.174-28.42v14.983c36.695 0 72.456 9.3 103.957 26.587 3.89 2.135 6.954 5.4 8.86 9.276-5.752 1.041-11.516 2.737-17.224 5.1-3.827 1.584-5.646 5.971-4.062 9.798 1.584 3.828 5.975 5.645 9.798 4.062 7.171-2.968 14.388-4.679 21.45-5.084 9.655-.549 18.764 2.751 25.508 9.116 35.361 33.374 47.917 63.036 49.978 99.983-8.179-2.194-18.854-2.024-20.727-1.556-52.161 13.038-106.41-5.44-139.853-47.16 11.986-14.689 25.06-29.466 39.743-40.933 3.265-2.55 3.845-7.263 1.295-10.527-2.551-3.266-7.265-3.843-10.527-1.295-17.415 13.602-32.359 31.078-45.914 47.938-33.041 41.1-72.806 75.548-118.19 102.388-11.758 6.953-22.188 15.826-31 26.371-16.957 20.293-28.355 54.811-28.379 85.923v.002.007c0 .029-.001.059-.001.088 0 .01.001.019.001.028-.168 14.115 1.508 27.993 4.986 41.25 1.052 4.01 5.156 6.402 9.158 5.351 4.007-1.051 6.402-5.151 5.352-9.158-1.327-5.056-2.345-10.22-3.088-15.457 20.507 21.37 45.784 37.864 73.558 47.925-6.633 5.22-12.56 11.164-17.712 17.672-45.092-11.861-86.311-32.879-122.584-62.523-2.848-2.327-4.046-6.083-3.052-9.569 9.166-32.131 10.083-57.832 10.121-76.161 7.448 2.02 13.678 1.841 19.185 1.82 4.873 0 8.452-4.582 7.279-9.307-6.947-27.986-6.947-57.584 0-85.593 1.174-4.731-2.414-9.306-7.279-9.306-4.534 0-11.092-.303-18.903 1.762 1.596-28.654 9.595-51.328 25.351-72.385 41.426-55.363 105.489-86.433 172.915-86.433v-14.983c-71.967 0-140.514 33.076-184.925 92.43-18.788 25.107-27.921 53.246-28.602 88.247-14.691 9.646-23.336 25.586-23.336 43.472 0 17.863 8.631 33.786 23.301 43.434 0 .141.001.276.001.417.078 18.738.186 44.401-9.532 78.472-2.639 9.25.495 19.181 7.984 25.299 36.582 29.897 77.978 51.406 123.178 64.034-9.25 16.084-14.333 34.531-14.333 53.633v15.062c0 4.142 3.357 7.5 7.5 7.5h197.525c4.143 0 7.5-3.358 7.5-7.5v-15.063c0-1.792-.045-3.608-.134-5.398-.206-4.137-3.696-7.326-7.864-7.118-4.137.206-7.323 3.727-7.117 7.864.076 1.542.115 3.107.115 4.652v7.563h-45.809c7.319-27.442 10.247-52.23 10.32-80.408 13.641 10.668 23.966 24.856 29.895 41.099 1.421 3.891 5.723 5.894 9.616 4.474 3.892-1.42 5.895-5.726 4.474-9.617-2.129-5.833-4.753-11.434-7.821-16.761 45.213-12.631 86.606-34.134 123.168-64.016 7.49-6.12 10.624-16.051 7.984-25.3-9.647-33.837-9.578-58.821-9.524-78.896zm-435.427-43.427c0-13.814 7.233-26.001 19.35-32.607.013-.007.026-.015.04-.022 5.079-2.761 9.601-3.842 13.725-4.254-4.723 24.298-4.725 49.452-.005 73.736-4.148-.418-8.678-1.498-13.72-4.238-.013-.007-.026-.015-.04-.022-12.116-6.607-19.35-18.788-19.35-32.593zm130.6 272.852v-7.563c0-19.672 6.25-38.54 17.43-54.074.015-.022.032-.041.046-.063 5.044-6.996 11.087-13.315 18.013-18.723.078 28.269 2.998 52.974 10.319 80.423zm121.141 0h-59.757c-4.208-14.934-7.218-30.247-8.983-45.703 24.763 4.127 51.454 4.379 77.724 0-1.766 15.456-4.776 30.768-8.984 45.703zm10.358-61.159c-26.148 4.869-54.313 4.869-80.47 0-.505-8.197-.551-14.823-.543-23.803 13.38 2.895 27.051 4.384 40.777 4.384 13.989 0 27.628-1.516 40.775-4.366.011 8.853-.037 15.66-.539 23.785zm-40.236-34.418c-56.389 0-107.532-26.619-140.258-68.868.597-26.832 10.651-56.887 24.861-73.891 7.715-9.232 16.842-16.997 27.125-23.079 44.246-26.165 83.321-59.329 116.282-98.648 34.985 41.81 90.666 62.405 145.683 51.551 2.384 11.683 3.59 23.643 3.59 35.653-.001 97.754-79.529 177.282-177.283 177.282zm205.615-41.267c-36.254 29.629-77.473 50.642-122.581 62.507-5.176-6.523-11.131-12.442-17.754-17.656 57.922-20.971 102.986-69.014 119.826-128.771 4.654-.029 9.162-.676 13.453-1.855.059 19.174 1.001 44.278 10.108 76.205.995 3.486-.203 7.242-3.052 9.57zm-16.898-99.123c2.331-11.944 3.565-24.276 3.565-36.892 0-12.416-1.209-24.782-3.563-36.892 18.613 1.973 33.165 17.763 33.165 36.892.001 19.13-14.553 34.921-33.167 36.892z"/></g></g></svg>