<svg id="Capa_1" enable-background="new 0 0 512 512" height="512" viewBox="0 0 512 512" width="512" xmlns="http://www.w3.org/2000/svg"><g><g><g><path d="m255.999 361.701c-16.839 0-33.003 2.938-48.016 8.315-36.364 13.023-66.899 40.814-82.945 77.614-7.602 17.436-11.835 36.665-11.835 56.869h142.797v-142.798c-.001 0-.001 0-.001 0z" fill="#ffcbbe"/><path d="m386.962 447.629c-15.444-35.418-45.18-64.092-82.962-77.618-15.069-5.396-31.288-8.309-47.999-8.31v142.799h142.797c-.001-20.205-4.233-39.435-11.836-56.871z" fill="#ffddcf"/></g><g><path d="m303.999 370.011c-15.07-5.396-31.289-8.31-48.001-8.31-16.839 0-33.003 2.938-48.016 8.315-36.364 13.023-66.899 40.814-82.945 77.614 14.168 12.454 30.599 24.374 47.562 34.475v22.395h166.783v-22.385c16.969-10.103 33.407-22.026 47.58-34.486-15.444-35.418-45.18-64.092-82.963-77.618z" fill="#ff8f71"/><path d="m207.997 370.01c-32.39 11.603-59.533 34.634-76.381 64.437-1.816 3.192-3.494 6.47-5.049 9.796-.523 1.12-1.034 2.249-1.53 3.387 14.167 12.454 30.599 24.374 47.562 34.475v22.395h12.002c3.666-22.456 11.76-43.46 23.396-62.058z" fill="#ff6f4d"/></g><g><path d="m255.999 361.701c-16.515 0-32.71 2.831-48.001 8.309v134.49h96.032v-134.478c-15.299-5.481-31.512-8.321-48.031-8.321z" fill="#b9f0ff"/><g><path d="m303.982 370.006c-15.285-5.47-31.481-8.305-47.984-8.305-16.515 0-32.71 2.831-48.001 8.309v72.431c21.593-34.518 55.413-60.735 95.985-72.435z" fill="#7ce3ff"/></g></g><path d="m256.039 344.222-48.042 25.788c8.43 22.109 25.326 39.651 48.042 51.798 22.715-12.146 39.559-29.679 47.99-51.786z" fill="#ffcbbe"/></g><g fill="#ffcbbe"><circle cx="84.833" cy="205.668" r="42.555"/><circle cx="427.167" cy="205.668" r="42.555"/></g><g><path d="m303.984 370.005c71.175-20.748 123.183-86.465 123.183-164.338 0-94.534-76.635-171.169-171.169-171.169-94.531 0-171.166 76.635-171.166 171.169 0 77.872 52.009 143.59 123.182 164.338 15.226 4.439 31.325 6.828 47.984 6.828 16.66.001 32.76-2.389 47.986-6.828z" fill="#ffddcf"/><path d="m141.573 205.668c0-84.868 61.769-155.297 142.796-168.815-9.229-1.54-18.704-2.354-28.371-2.354-94.531 0-171.166 76.635-171.166 171.169 0 94.531 76.636 171.166 171.166 171.166 9.666 0 19.141-.814 28.371-2.354-81.027-13.519-142.796-83.947-142.796-168.812z" fill="#ffcbbe"/></g><g fill="#ffcbbe"><ellipse cx="157.441" cy="267.804" rx="36.366" ry="28.96"/><ellipse cx="354.559" cy="267.804" rx="36.366" ry="28.96"/></g><g><path d="m350.106 28.374-50.766-15.655c-27.891-8.601-57.985-6.516-84.424 5.848l-130.153 60.865c-8.484 3.967-9.119 15.79-1.109 20.644l-3.922 1.909c-10.329 5.027-8.014 20.37 3.339 22.125l4.122.637-1.23 1.573c-5.827 7.455.968 18.09 10.181 15.936l.915-.214c-5.057 12.622-8.65 25.987-10.578 39.885h10.476.213c22.694-.046 43.4-12.967 53.576-33.251l10.902-21.732 22.372-8.39c46.41-17.404 97.554-17.404 143.963 0l6.539 3.269c11.5 5.75 20.829 15.07 26.591 26.564.053.105.105.209.159.314 7.22 14.19 20.711 24.151 36.297 27.399l27.954 5.824.014.003c23.734-63.354-10.781-133.617-75.431-153.553z" fill="#ce857a"/><path d="m222.968 56.914c0-21.558 13.061-40.967 33.032-49.086-14.115 1.048-28.044 4.641-41.084 10.739l-130.153 60.865c-8.484 3.967-9.119 15.79-1.109 20.644l-3.922 1.909c-10.329 5.027-8.014 20.37 3.339 22.125l4.122.637-1.23 1.573c-5.827 7.455.968 18.089 10.181 15.936l.915-.214c-5.057 12.622-8.65 25.987-10.578 39.885h10.476.213c22.694-.046 43.4-12.967 53.576-33.251l10.902-21.732 22.372-8.39c22.845-8.567 46.836-12.907 70.846-13.04-19.328-8.385-31.898-27.455-31.898-48.6z" fill="#c77464"/></g><g><circle cx="321.586" cy="448.58" r="7.5"/><circle cx="321.586" cy="486.809" r="7.5"/><path d="m171.135 225.417v14.153c0 4.142 3.358 7.5 7.5 7.5s7.5-3.358 7.5-7.5v-14.153c0-4.142-3.358-7.5-7.5-7.5s-7.5 3.357-7.5 7.5z"/><path d="m270.743 234.556c-3.721 4.27-9.095 6.719-14.743 6.719s-11.021-2.449-14.743-6.719c-2.722-3.123-7.459-3.448-10.582-.727-3.123 2.722-3.448 7.459-.727 10.582 6.571 7.541 16.066 11.865 26.051 11.865s19.48-4.324 26.051-11.865c2.721-3.123 2.396-7.86-.727-10.582-3.12-2.721-7.859-2.396-10.58.727z"/><path d="m336.097 215.273c-13.179 0-23.901 10.722-23.901 23.901 0 4.142 3.358 7.5 7.5 7.5s7.5-3.358 7.5-7.5c0-4.908 3.993-8.901 8.901-8.901s8.901 3.993 8.901 8.901c0 4.142 3.357 7.5 7.5 7.5s7.5-3.358 7.5-7.5c0-13.178-10.722-23.901-23.901-23.901z"/><path d="m391.654 297.271c-2.322 3.43-1.423 8.093 2.007 10.415 3.44 2.326 8.099 1.416 10.415-2.008 10.426-15.405 18.302-32.189 23.474-49.965 27.424-.207 49.672-22.573 49.672-50.045 0-23.154-15.802-42.976-37.788-48.514 3.701-27.646-1.994-55.818-16.34-80.109-15.838-26.816-40.975-46.647-70.779-55.838l-50.765-15.655c-12.032-3.711-24.419-5.552-36.771-5.552-18.415 0-36.261 3.927-53.04 11.772l-130.154 60.866c-9.633 4.505-13.672 15.869-9.365 25.36-10.495 8.951-8.042 26.083 4.269 31.875-1.203 7.83 3.194 15.515 10.188 18.655-.381 1.13-1.418 4.336-2.227 7.115-27.672.223-49.673 22.679-49.673 50.024 0 27.528 22.196 49.809 49.667 50.033 15.426 53.09 54.036 94.744 103.094 115.054-15.689 8.074-29.988 18.908-42.012 31.948-2.808 3.045-2.615 7.79.43 10.598 3.045 2.807 7.79 2.615 10.598-.43 12.375-13.421 27.412-24.261 43.942-31.741v115.871h-20.396c0-10.413 0-18.262 0-28.972 0-9.748-15-10.339-15 .55-10.859-7.099-21.33-14.871-30.888-22.943 1.656-3.411 3.459-6.762 5.387-10.01 2.114-3.562.941-8.164-2.621-10.278-3.563-2.114-8.164-.941-10.278 2.621-13.263 22.344-20.998 48.427-20.998 76.531 0 4.142 3.358 7.5 7.5 7.5h285.594c4.143 0 7.5-3.358 7.5-7.5 0-57.067-32.263-108.284-81.742-133.726 22.203-9.219 42.511-22.979 59.808-40.833 2.882-2.975 2.807-7.723-.168-10.605-2.978-2.883-7.725-2.805-10.605.168-30.352 31.331-71.892 49.83-117.59 49.83-74.99 0-140.229-50.698-158.648-123.289-4.6-18.131-6.119-37.182-4.198-56.618h4.031c25.629-.052 48.721-14.378 60.264-37.389l9.584-19.105 19.62-7.357c44.597-16.725 93.709-16.768 138.331-.137 6.839 3.419 20.81 9.126 29.426 26.314l.176.349c8.213 16.139 23.321 27.562 41.451 31.34l22.687 4.727c4.018 37.729-4.882 76.319-27.069 109.103zm-263.455 162.847c11.458 9.377 24 18.307 36.901 26.218v10.664h-44.193c.69-12.641 3.137-24.987 7.292-36.882zm87.298-62.026c9.462 11.994 21.927 22.267 37.006 30.329 2.21 1.182 4.863 1.182 7.073 0 15.052-8.048 27.499-18.312 36.953-30.305v98.884h-81.032zm116.385 98.908h-20.353v-115.859c29.433 13.316 52.737 36.651 66.258 64.493-9.564 8.078-20.04 15.853-30.905 22.955 0-10.864-15-10.35-15-.561zm15 0v-10.655c12.907-7.914 25.454-16.847 36.918-26.229 4.156 11.895 6.603 24.242 7.292 36.884zm-56.684-115.918c-7.897 12.72-19.471 23.645-34.159 32.145-14.72-8.516-26.313-19.447-34.214-32.167 21.917 4.245 45.219 4.475 68.373.022zm172.025-175.415c0 17.946-13.557 32.776-30.965 34.809 2.253-11.407 3.409-23.049 3.409-34.737 0-7.64-.515-15.347-1.488-22.949 1.278-3.571 2.395-7.209 3.347-10.89 14.827 4.143 25.697 17.907 25.697 33.767zm-412.446 0c0-17.83 13.459-32.84 30.963-34.82-4.544 23.099-4.543 46.619.005 69.639-17.504-1.976-30.968-16.982-30.968-34.819zm94.264-60.354c-8.654 17.25-25.663 29.114-48.701 29.114 1.641-8.5 3.932-16.937 7.194-25.729 9.788-1.614 27.046-4.039 44.241-8.837zm223.775-.287c-6.445-12.857-17.078-23.479-29.942-29.912-.583-.291-6.674-3.364-7.259-3.583-48.118-18.043-101.114-18.044-149.23 0l-22.373 8.39c-.039.015-.075.034-.113.049-.035.014-.072.023-.107.038-22.591 9.294-51.174 12.381-63.143 14.668-1.113.213-2.76.993-3.917-.822-1.136-1.775.102-2.868 1.368-4.487 3.523-4.506.892-11.157-4.762-12.031l-4.123-.638c-4.106-.635-4.944-6.147-1.203-7.969 3.539-1.722 7.891-3.072 8.133-8.308.126-2.743-1.257-5.336-3.605-6.759-2.887-1.749-2.663-6.004.399-7.436l130.154-60.866c24.805-11.599 52.874-13.543 79.038-5.475l50.765 15.655c58.392 18.006 90.751 79.458 72.688 137.694l-21.487-4.477c-13.481-2.808-25.019-11.25-31.281-23.731z"/></g></g></svg>