<svg id="Capa_1" enable-background="new 0 0 512 512" height="512" viewBox="0 0 512 512" width="512" xmlns="http://www.w3.org/2000/svg"><g><g><g><path d="m321.754 438.46c-12.13-15.232-29.342-26.18-49.016-30.194-5.411-1.104-11.009-1.684-16.738-1.684-26.56 0-50.287 12.456-65.753 31.878-11.607 14.575-18.564 33.072-18.564 53.18v12.86h84.317 84.318v-12.86c0-6.569-.743-12.966-2.147-19.111-2.895-12.664-8.602-24.255-16.417-34.069z" fill="#db9e82"/><path d="m205.186 504.5h-33.504v-12.86c0-6.571.742-12.964 2.147-19.111 2.492-10.903 7.068-21.01 13.28-29.873 15.755-22.48 41.254-36.074 68.89-36.074 5.729 0 11.327.58 16.739 1.684-24.757 5.059-45.607 21.139-57.339 42.893v32.56z" fill="#c8866a"/></g><g><path d="m306.417 483.483c-1.103-11.606-4.537-22.539-9.817-32.328-3.382.73-6.687 1.348-9.952 1.869-12.364 1.972-23.45 8.734-30.647 18.98l-.001.001-.001-.001c-7.197-10.247-18.284-17.008-30.649-18.981-3.263-.521-6.568-1.139-9.949-1.868-5.28 9.789-8.714 20.723-9.817 32.328-.256 2.686-.397 5.405-.397 8.157v12.86h101.629v-12.86c-.002-2.752-.143-5.47-.399-8.157z" fill="#64b3fb"/><path d="m215.401 451.155c-.001.001-.001.002-.002.004-5.279 9.788-8.712 20.72-9.815 32.325-.256 2.686-.397 5.405-.397 8.157v12.86h33.728v-12.86c0-1.581.082-3.249.246-4.966.652-6.863 2.646-13.425 5.925-19.506l2.337-4.332c-6.298-5.108-13.898-8.514-22.063-9.818-3.351-.536-6.674-1.156-9.959-1.864z" fill="#53a3ec"/></g></g><g><path d="m413.757 227.066h-315.514c-21.031 0-38.079 17.049-38.079 38.079s17.049 38.079 38.079 38.079h315.513c21.031 0 38.079-17.048 38.079-38.079s-17.048-38.079-38.078-38.079z" fill="#c8866a"/><g><path d="m282.272 109.578c-8.545-1.433-17.32-2.19-26.272-2.19s-17.726.757-26.271 2.19c-74.62 12.51-131.485 77.392-131.485 155.567s56.865 143.057 131.485 155.567c8.545 1.433 17.319 2.19 26.271 2.19s17.727-.757 26.272-2.19c74.62-12.51 131.485-77.393 131.485-155.567s-56.865-143.056-131.485-155.567z" fill="#db9e82"/><path d="m150.574 265.364c0-78.313 56.968-143.312 131.698-155.786-8.545-1.433-17.32-2.19-26.272-2.19s-17.726.757-26.271 2.19c-74.62 12.51-131.485 77.392-131.485 155.567s56.865 143.057 131.485 155.567c8.545 1.433 17.319 2.19 26.271 2.19s17.727-.757 26.272-2.19c-74.73-12.475-131.698-77.037-131.698-155.348z" fill="#c8866a"/></g><g><g><g><ellipse cx="170.05" cy="316.962" fill="#ff8e9e" rx="31.551" ry="25.024"/></g><g><ellipse cx="341.95" cy="316.962" fill="#ff8e9e" rx="31.551" ry="25.024"/></g></g></g></g><g><circle cx="341.95" cy="77.178" fill="#4c5659" r="69.678"/><g><path d="m404.828 148.811c-16.209-23.145-44.149-35.086-72.079-30.804-37.205-48.983-103.649-65.18-159.221-38.815-55.787 26.467-84.993 88.325-70.65 147.874l41.232.012c57.71 0 113.056-22.925 153.863-63.732 12.534 0 24.963 4.881 34.281 14.2l30.731 30.731c11.619 11.619 27.523 18.801 46.147 18.801 2.078-3.794 3.795-7.72 5.161-11.729 7.556-22.177 4.262-46.937-9.465-66.538z" fill="#676f72"/><path d="m308.277 107.557c5.544 0 11.02.289 16.417.847-38.212-41.395-99.403-53.77-151.166-29.212-55.787 26.467-84.993 88.325-70.65 147.874l41.232.012c3.717 0 7.423-.099 11.117-.288 17.212-68.506 79.203-119.233 153.05-119.233z" fill="#4c5659"/></g></g><g><path d="m459.336 265.145c0-22.824-16.864-41.78-38.786-45.071 9.535-25.455 5.657-53.809-9.579-75.565-3.775-5.39-8.098-10.219-12.859-14.444 5.5-5.849 10.121-12.545 13.552-19.745 1.782-3.739.195-8.215-3.544-9.997-3.741-1.783-8.216-.195-9.997 3.544-3.03 6.358-7.215 12.229-12.225 17.249-14.751-8.826-32.12-12.845-49.87-11.081-14.823-18.294-34.074-32.542-55.656-41.422 4.179-30.46 30.26-53.613 61.578-53.613 34.298 0 62.558 28.011 62.175 63.005-.053 4.142 3.262 7.542 7.403 7.595h.098c4.098 0 7.445-3.295 7.497-7.405.603-42.83-34.142-78.195-77.173-78.195-37.848 0-69.53 27.251-75.964 63.589-33.144-9.527-67.271-5.86-95.902 8.941-35.569 18.387-55.037 55.62-63.475 76.177-10.527 25.646-15.207 52.222-12.875 71.083-23.023 2.272-41.07 21.743-41.07 45.354 0 24.729 19.798 44.906 44.374 45.55 7.928 27.887 23.18 53.265 44.811 73.924 2.991 2.858 7.739 2.755 10.604-.244 2.861-2.995 2.752-7.742-.244-10.604-29.964-28.618-46.466-67.195-46.466-108.626 0-10.295 1.062-20.552 3.135-30.577l35.232.011c58.801 0 114.954-22.932 156.832-63.627 9.829.698 18.974 4.861 26.01 11.897l30.731 30.731c12.136 12.136 28.078 19.366 45.392 20.74 2.106 10.102 3.184 20.445 3.184 30.825 0 82.852-67.405 150.257-150.257 150.257-28.973 0-57.117-8.284-81.389-23.956-3.48-2.248-8.123-1.247-10.369 2.232s-1.247 8.122 2.232 10.369c9.986 6.448 20.567 11.757 31.568 15.879-22.157 18.223-33.861 44.913-33.861 71.713v12.86c0 4.143 3.358 7.5 7.5 7.5h168.637c4.143 0 7.5-3.357 7.5-7.5v-12.86c0-27.613-12.22-53.931-33.885-71.729 48.649-18.271 86.472-58.848 100.935-109.215 24.618-.592 44.466-20.79 44.466-45.549zm-160.022 231.855h-86.629c0-5.583-.074-8.201.364-12.807.813-8.548 3-16.784 6.515-24.558 5.123.947 20.054 2.155 30.254 16.617 1.386 2.018 3.69 3.251 6.182 3.251 2.481 0 4.777-1.226 6.166-3.229 10.037-14.25 24.494-15.57 30.27-16.639 3.515 7.773 5.703 16.01 6.515 24.559.436 4.586.363 7.089.363 12.806zm33.504-5.36v5.36h-18.504c0-5.515.086-8.802-.431-14.227-1.177-12.383-4.771-24.219-10.683-35.179-1.583-2.938-4.918-4.475-8.182-3.771-10.251 2.211-24.856 2.72-39.019 16.638-14.19-13.943-28.657-14.402-39.018-16.638-3.264-.705-6.598.832-8.183 3.771-5.911 10.96-9.505 22.796-10.683 35.178-.515 5.413-.431 8.673-.431 14.228h-18.504v-5.36c0-28.121 14.791-52.545 36.793-66.153 13.005 3.241 26.43 4.915 40.026 4.915 13.797 0 27.201-1.71 40.021-4.911 22.348 13.819 36.798 38.523 36.798 66.149zm-265.154-226.495c0-15.252 11.224-27.929 25.846-30.211-1.837 9.936-2.767 20.059-2.767 30.211 0 10.258.928 20.355 2.729 30.206-14.603-2.299-25.808-14.967-25.808-30.206zm269.894-92.904c-10.574-10.572-24.631-16.396-39.585-16.396-1.989 0-3.897.79-5.303 2.196-39.683 39.683-92.442 61.536-148.558 61.536l-35.27-.011c-2.207-14.019.46-37.921 11.643-65.164 7.657-18.653 25.177-52.363 56.487-68.548 49.916-25.804 114.319-10.032 149.805 36.688 1.663 2.188 4.387 3.292 7.109 2.877 25.471-3.908 50.251 6.92 64.799 27.692 13.39 19.12 16.01 44.446 5.913 66.307-14.014-.995-26.493-6.63-36.309-16.446zm80.921 123.118c1.818-9.799 2.778-19.896 2.778-30.214 0-10.153-.931-20.277-2.768-30.211 14.622 2.281 25.847 14.959 25.847 30.211 0 15.256-11.23 27.937-25.857 30.214z"/><path d="m195.557 292.889v-13.056c0-4.143-3.358-7.5-7.5-7.5s-7.5 3.357-7.5 7.5v13.056c0 4.143 3.358 7.5 7.5 7.5s7.5-3.358 7.5-7.5z"/><path d="m331.443 292.889v-13.056c0-4.143-3.358-7.5-7.5-7.5s-7.5 3.357-7.5 7.5v13.056c0 4.143 3.358 7.5 7.5 7.5s7.5-3.358 7.5-7.5z"/><path d="m256 308.16c9.032 0 17.622-3.912 23.566-10.732 2.722-3.122 2.396-7.86-.726-10.582-3.122-2.721-7.861-2.396-10.582.727-3.095 3.551-7.563 5.588-12.259 5.588s-9.164-2.037-12.259-5.588c-2.722-3.124-7.459-3.447-10.582-.727-3.123 2.722-3.448 7.46-.726 10.582 5.946 6.82 14.536 10.732 23.568 10.732z"/></g></g></svg>