<svg id="Capa_1" enable-background="new 0 0 512 512" height="512" viewBox="0 0 512 512" width="512" xmlns="http://www.w3.org/2000/svg"><g><g><g><path d="m255.999 370.557c-15.795 0-30.956 2.756-45.038 7.8-34.109 12.215-62.75 38.283-77.801 72.801-7.131 16.354-11.101 34.391-11.101 53.342h133.941v-133.943c-.001 0-.001 0-.001 0z" fill="#ffbd86"/><path d="m378.84 451.156c-14.486-33.222-42.378-60.117-77.817-72.804-14.134-5.061-29.348-7.794-45.023-7.794v133.942h133.941c0-18.952-3.97-36.989-11.101-53.344z" fill="#fed2a4"/><path d="m301.023 378.352c-14.135-5.061-29.349-7.794-45.024-7.794-15.795 0-30.956 2.756-45.038 7.8-34.109 12.215-62.75 38.283-77.801 72.801 13.289 11.682 28.701 22.862 44.612 32.337v21.004h156.439v-20.997c15.917-9.476 31.335-20.66 44.629-32.347-14.486-33.222-42.378-60.117-77.817-72.804z" fill="#b28ae4"/><path d="m210.974 378.351c-34.958 12.523-63.135 39.126-77.814 72.807 13.288 11.682 28.701 22.862 44.612 32.337v21.005h11.257c3.439-21.063 11.03-40.764 21.945-58.209z" fill="#976bcf"/></g><g><path d="m255.999 370.557c-15.491 0-30.682 2.656-45.024 7.793v126.15h90.076v-126.138c-14.35-5.141-29.558-7.805-45.052-7.805z" fill="#ff8e9e"/><path d="m301.006 378.347c-14.337-5.13-29.529-7.79-45.008-7.79-15.491 0-30.682 2.656-45.024 7.793v67.939c20.254-32.376 51.976-56.968 90.032-67.942z" fill="#ea5b70"/></g><path d="m256.037 354.162-45.063 24.189c7.907 20.738 23.755 37.192 45.063 48.585 21.307-11.393 37.106-27.838 45.013-48.574z" fill="#ffbd86"/><g><path d="m185.412 375.828c-12.399 12.399-12.399 32.502 0 44.901l25.563 25.561v-96.024z" fill="#b28ae4"/><path d="m326.57 375.828-25.561-25.561v96.024l25.561-25.561c12.399-12.4 12.399-32.503 0-44.902z" fill="#c9aaf2"/></g></g><g><g fill="#ffbd86"><circle cx="95.448" cy="224.201" r="39.916"/><circle cx="416.552" cy="224.201" r="39.916"/></g><g><path d="m301.008 378.347c66.761-19.461 115.544-81.103 115.544-154.146 0-79.606-57.935-145.68-133.942-158.358-8.656-1.444-17.546-2.195-26.611-2.195-88.668 0-160.551 71.882-160.551 160.553 0 73.043 48.783 134.685 115.542 154.146 14.282 4.163 29.382 6.405 45.008 6.405 9.066 0 17.956-.755 26.611-2.201 6.264-1.048 12.404-2.457 18.399-4.204z" fill="#fed2a4"/><path d="m148.67 224.201c0-79.605 57.938-145.678 133.94-158.358-8.657-1.444-17.544-2.195-26.611-2.195-88.668 0-160.551 71.882-160.551 160.553 0 88.669 71.883 160.551 160.551 160.551 9.067 0 17.954-.757 26.611-2.201-76.002-12.681-133.94-78.748-133.94-158.35z" fill="#ffbd86"/></g><g fill="#ffbd86"><ellipse cx="168.473" cy="278.819" rx="31.951" ry="25.444"/><ellipse cx="343.396" cy="278.819" rx="32.082" ry="25.444"/></g></g><g><path d="m306.681 71.812c-20.286-6.742-33.996-25.675-34.086-47.036-.038-8.869-6.546-16.611-15.393-17.233-9.708-.684-17.796 6.989-17.796 16.552v.469c0 21.45-13.737 40.484-34.091 47.251-63.832 21.22-109.867 81.426-109.867 152.386h11.371c21.351-.022 40.866-12.078 50.439-31.163l.001-.001c4.532-9.034 7.602-18.697 9.125-28.629 1.638-10.681 6.423-20.63 13.574-28.731 5.712-6.47 12.755-11.524 20.56-14.837 6.982-2.964 14.541-4.317 22.126-4.317h66.712c7.585 0 15.144 1.354 22.126 4.317 7.806 3.313 14.849 8.367 20.56 14.837 7.151 8.101 11.937 18.05 13.574 28.731 1.523 9.931 4.593 19.594 9.125 28.629l.001.001c9.573 19.084 29.088 31.141 50.439 31.163h11.371c0-70.924-46.001-131.16-109.871-152.389z" fill="#88c5fd"/><path d="m272.595 66.572v-41.796c-.038-8.869-6.546-16.611-15.393-17.233-9.708-.684-17.796 6.989-17.796 16.552v.469c0 21.45-13.737 40.484-34.091 47.251-63.832 21.22-109.867 81.426-109.867 152.386h11.371c21.351-.022 40.866-12.078 50.439-31.163l.001-.001c4.532-9.034 7.602-18.697 9.125-28.629 1.638-10.681 6.423-20.63 13.574-28.731 5.712-6.47 12.755-11.524 20.56-14.837 6.982-2.964 14.541-4.317 22.126-4.317 27.587 0 49.951-22.364 49.951-49.951z" fill="#53a3ec"/></g><g><path d="m186.914 261.98c4.142 0 7.5-3.357 7.5-7.5v-13.275c0-4.143-3.358-7.5-7.5-7.5s-7.5 3.357-7.5 7.5v13.275c0 4.143 3.358 7.5 7.5 7.5z"/><path d="m332.586 254.48v-13.275c0-4.143-3.358-7.5-7.5-7.5s-7.5 3.357-7.5 7.5v13.275c0 4.143 3.358 7.5 7.5 7.5s7.5-3.357 7.5-7.5z"/><path d="m256 269.884c9.147 0 17.847-3.962 23.868-10.87 2.722-3.122 2.396-7.86-.726-10.582-3.122-2.721-7.86-2.396-10.582.727-3.171 3.639-7.75 5.726-12.56 5.726-4.811 0-9.389-2.087-12.56-5.726-2.722-3.122-7.459-3.447-10.582-.727-3.123 2.722-3.448 7.459-.727 10.582 6.022 6.908 14.721 10.87 23.869 10.87z"/><path d="m417.272 176.816c-15.208-51.953-54.942-94.409-108.226-112.121-17.239-5.729-28.874-21.785-28.951-39.952-.057-13.36-10.551-24.743-24.095-24.743-13.298.001-24.094 10.81-24.094 24.094 0 19.419-12.155 35.021-28.946 40.604-53.289 17.709-93.025 60.167-108.232 112.123-26.261.416-46.696 21.801-46.696 47.381 0 25.713 20.594 47.002 46.729 47.388 9.191 31.315 27.41 59.586 52.983 81.143 3.167 2.67 7.899 2.267 10.568-.9 2.67-3.167 2.267-7.898-.9-10.568-32.692-27.557-52.205-67.152-54.271-109.563h3.686c32.098-.032 60.256-22.374 66.971-66.155 3.362-21.932 22.523-41.522 48.847-41.522h66.712c25.969 0 45.433 19.264 48.847 41.522 6.706 43.756 34.855 66.123 66.978 66.155h3.677c-3.943 79.429-69.653 145.552-152.86 145.552-27.314 0-53.012-7.2-75.143-19.694-3.605-2.037-8.181-.764-10.218 2.843-2.037 3.606-.764 8.182 2.843 10.218 1.44.813 2.893 1.604 4.357 2.374-4.859 5.755-7.914 12.698-8.879 20.136-33.596 26.358-54.4 66.796-54.4 111.373 0 4.143 3.358 7.5 7.5 7.5h267.883c4.143 0 7.5-3.357 7.5-7.5 0-19.539-3.945-38.495-11.727-56.342-1.772-4.065-3.761-8.095-5.914-11.978-2.007-3.621-6.57-4.933-10.195-2.924-3.623 2.008-4.932 6.572-2.924 10.195 1.036 1.87 2.031 3.779 2.976 5.711-11.97 10.081-25.449 19.659-39.283 27.896-2.271 1.353-3.663 3.801-3.663 6.444v13.494h-18.203v-47.602l23.365-23.366c4.33-4.33 7.433-9.43 9.313-14.862 3.201 2.924 6.253 6.007 9.131 9.23 2.759 3.091 7.502 3.358 10.589.601 3.091-2.758 3.359-7.499.601-10.589-5.624-6.301-11.839-12.12-18.508-17.34-.959-7.222-3.923-14.221-8.888-20.098 21.616-11.405 40.785-27.512 55.672-47.063 12.585-16.526 21.838-34.858 27.536-54.323 26.109-.431 46.65-21.708 46.65-47.387-.002-25.647-20.521-46.984-46.698-47.385zm-354.24 47.385c0-16.207 12.067-30.002 27.995-32.125-2.021 10.442-3.079 21.186-3.079 32.125 0 10.886 1.049 21.638 3.085 32.128-15.859-2.11-28.001-15.851-28.001-32.128zm278.679 263.53c11.853-7.281 23.38-15.475 33.943-24.079 3.698 10.768 5.901 21.928 6.569 33.348h-40.512zm-85.712-95.479c10.515 0 20.751-.956 31.133-2.904-7.308 11.433-17.829 21.281-31.094 29.001-13.286-7.729-23.813-17.577-31.126-28.997 10.219 1.915 20.619 2.9 31.087 2.9zm-85.727 104.748h-40.495c.668-11.419 2.871-22.579 6.569-33.347 10.556 8.6 22.077 16.789 33.926 24.069zm33.202 0h-18.203v-13.506c0-2.644-1.392-5.092-3.663-6.444-13.831-8.235-27.305-17.81-39.267-27.886 6.989-14.28 16.673-27.167 28.458-37.95 1.919 5.508 5.065 10.557 9.309 14.801l23.366 23.366zm0-68.833-12.759-12.759c-4.577-4.576-7.098-10.666-7.097-17.146.001-8.07 3.304-13.354 8.541-18.59 3.723 1.53 7.496 2.93 11.316 4.186v44.309zm90.035 68.833h-75.034v-50.724c0-.001 0-.003 0-.005v-40.259c8.543 10.527 19.772 19.89 34.007 27.528 2.211 1.19 4.875 1.196 7.092.011 13.718-7.335 25.138-16.632 33.935-27.465zm27.758-81.574-12.758 12.758v-44.321c3.817-1.258 7.587-2.656 11.301-4.188l1.457 1.457c9.455 9.455 9.455 24.839 0 34.294zm83.922-198.726c-29.932-.03-47.563-23.445-52.159-53.429-4.471-29.168-29.857-54.249-63.673-54.249h-66.712c-33.655 0-59.181 24.948-63.673 54.249-4.567 29.771-22.102 53.399-52.151 53.429h-3.682c3.05-62.954 44.286-117.74 104.554-137.769 23.456-7.799 39.215-29.647 39.215-54.369 0-6.003 4.475-9.536 9.094-9.55 5.272-.012 9.073 4.613 9.095 9.795.104 24.61 15.866 46.36 39.22 54.122 60.264 20.031 101.499 74.819 104.548 137.771zm15.815 39.623c2.016-10.477 3.048-21.215 3.048-32.122 0-10.939-1.058-21.685-3.079-32.127 15.831 2.107 27.995 15.828 27.995 32.127 0 16.331-12.188 30.004-27.964 32.122z"/></g></g></svg>