<svg id="Capa_1" enable-background="new 0 0 512 512" height="512" viewBox="0 0 512 512" width="512" xmlns="http://www.w3.org/2000/svg"><g><g><g><path d="m256 7.5c-74.437 0-134.78 60.343-134.78 134.78h269.56c0-56.557-34.835-104.977-84.219-124.975-15.614-6.323-32.681-9.805-50.561-9.805z" fill="#ffce71"/></g><g><path d="m306.56 17.304c-15.609-6.319-32.685-9.804-50.56-9.804-74.437 0-134.78 60.343-134.78 134.78h101.085c0-56.562 34.864-104.981 84.255-124.976z" fill="#ffb357"/></g><g><ellipse cx="256" cy="164.743" fill="#ffb357" rx="224.633" ry="112.316"/></g></g><g><g><path d="m256 348.377v96.657c46.542 0 93.084-4.743 138.897-14.227l.001-.001c13.892-2.876 23.855-15.113 23.855-29.299v-53.13z" fill="#676f72"/></g><g><path d="m93.247 348.377v53.13c0 14.187 9.963 26.423 23.855 29.299l.001.001c45.813 9.484 92.355 14.227 138.897 14.227v-96.657z" fill="#4c5659"/></g></g><g><g><g><path d="m323.88 436.324c-12.523-15.725-30.291-27.026-50.601-31.171-5.586-1.14-11.365-1.738-17.28-1.738-27.419 0-51.913 12.859-67.88 32.909-11.983 15.047-19.165 34.142-19.165 54.9v13.276h87.046 87.045v-13.276c0-6.781-.767-13.385-2.217-19.729-2.988-13.073-8.88-25.04-16.948-35.171z" fill="#ffce71"/></g><g><path d="m273.279 405.153c-5.587-1.14-11.365-1.738-17.28-1.738-27.419 0-51.913 12.859-67.88 32.909-8.068 10.131-13.96 22.098-16.948 35.171-1.45 6.343-2.216 12.947-2.216 19.729v13.276h34.588v-13.276c-.001-42.383 30.016-77.954 69.736-86.071z" fill="#ffb357"/></g></g><g><path d="m256 380.942-42.54 33.695c4.857 29.94 23.698 44.922 42.54 44.927 18.839.004 37.679-14.965 42.54-44.927z" fill="#ffcbbe"/></g><g><g><path d="m187.982 436.497c-7.998 10.094-13.839 21.998-16.811 34.998-1.45 6.343-2.216 12.947-2.216 19.729v13.276h34.587v-30.127c0-14.185-5.6-27.789-15.56-37.876z" fill="#ffcbbe"/></g><g><path d="m324.018 436.497c-9.961 10.087-15.56 23.691-15.56 37.876v30.127h34.587v-13.276c0-6.781-.766-13.385-2.216-19.729-2.972-13-8.813-24.903-16.811-34.998z" fill="#ffddcf"/></g></g></g><g><g><path d="m418.859 218.093h-325.718c-21.711 0-39.311 17.6-39.311 39.311s17.6 39.311 39.311 39.311h325.718c21.711 0 39.311-17.6 39.311-39.311s-17.601-39.311-39.311-39.311z" fill="#ffcbbe"/></g><g><path d="m283.122 96.806c-8.821-1.479-17.88-2.261-27.122-2.261s-18.3.782-27.121 2.261c-77.033 12.915-135.738 79.895-135.738 160.598s58.704 147.683 135.738 160.598c8.822 1.479 17.879 2.261 27.121 2.261s18.3-.782 27.122-2.261c77.033-12.915 135.737-79.895 135.737-160.598s-58.704-147.683-135.737-160.598z" fill="#ffddcf"/></g><g><path d="m147.164 257.63c0-80.846 58.81-147.947 135.957-160.824-8.821-1.479-17.88-2.261-27.122-2.261s-18.3.782-27.121 2.261c-77.033 12.915-135.738 79.895-135.738 160.598s58.704 147.683 135.738 160.598c8.822 1.479 17.879 2.261 27.121 2.261s18.3-.782 27.122-2.261c-77.146-12.878-135.957-79.528-135.957-160.372z" fill="#ffcbbe"/></g></g><g><g><g><ellipse cx="167.97" cy="310.235" fill="#ff8e9e" rx="32.481" ry="25.867"/></g></g><g><g><ellipse cx="344.03" cy="310.235" fill="#ff8e9e" rx="32.481" ry="25.867"/></g></g></g><g><g><path d="m284.514 88.498c-9.408-1.577-19.002-2.377-28.514-2.377s-19.105.8-28.514 2.377c-57.497 9.64-104.682 47.83-127.654 98.685-4.339 9.605-6.586 20.025-6.586 30.565v165.378h53.35v-134.134h16.357c50.339 0 99.732-16.537 139.94-46.712l29.586 29.585c9.032 9.034 20.501 14.747 32.923 16.528v134.732h53.35v-165.377c0-10.54-2.247-20.959-6.586-30.565-22.97-50.855-70.155-89.045-127.652-98.685z" fill="#676f72"/></g><g><path d="m343.032 109.92c-17.656-10.467-37.386-17.878-58.518-21.421-9.408-1.577-19.002-2.377-28.514-2.377s-19.105.8-28.514 2.377c-57.497 9.64-104.682 47.829-127.654 98.685-4.339 9.605-6.586 20.025-6.586 30.565v165.378h53.35v-134.135h16.357c19.019 0 37.902-2.364 56.207-6.929 2.692-17.159 8.171-33.953 16.404-49.686 21.955-41.952 61.263-72.113 107.468-82.457z" fill="#4c5659"/></g></g><g><path d="m186.9 259.128c-12.66 0-22.96 10.3-22.96 22.96 0 4.143 3.358 7.5 7.5 7.5s7.5-3.357 7.5-7.5c0-4.389 3.571-7.96 7.96-7.96 4.39 0 7.961 3.571 7.961 7.96 0 4.143 3.358 7.5 7.5 7.5s7.5-3.357 7.5-7.5c0-12.66-10.3-22.96-22.961-22.96z"/><path d="m309.639 289.588c4.142 0 7.5-3.357 7.5-7.5 0-4.389 3.571-7.96 7.96-7.96s7.961 3.571 7.961 7.96c0 4.143 3.357 7.5 7.5 7.5s7.5-3.357 7.5-7.5c0-12.66-10.3-22.96-22.961-22.96s-22.96 10.3-22.96 22.96c0 4.142 3.358 7.5 7.5 7.5z"/><path d="m278.054 298.347c2.721-3.123 2.396-7.86-.727-10.582-3.124-2.721-7.86-2.396-10.582.727-2.713 3.113-6.63 4.899-10.745 4.899s-8.032-1.786-10.746-4.899c-2.722-3.124-7.459-3.448-10.582-.726-3.123 2.721-3.448 7.459-.726 10.581 5.563 6.383 13.602 10.044 22.054 10.044s16.491-3.662 22.054-10.044z"/><path d="m488.133 164.743c0-54.117-63.655-88.418-115.435-103.802-26.769-38.368-70.076-60.941-116.698-60.941-46.631 0-90.036 22.72-116.699 60.903-16.131 4.796-31.204 10.621-44.882 17.409-3.71 1.841-5.226 6.342-3.384 10.052 1.84 3.71 6.339 5.228 10.052 3.384 41.349-20.52 96.364-31.82 154.913-31.82 38.686 0 76.711 5.067 109.965 14.654 66.104 19.058 107.168 53.605 107.168 90.162 0 18.413-10.36 36.526-30.03 52.632-5.237-3.168-11.067-5.28-17.112-6.219-.747-9.349-3.088-18.424-6.988-27.059-24.682-54.643-74.494-93.146-133.249-102.995-19.633-3.29-39.872-3.292-59.508 0-58.754 9.85-108.566 48.353-133.248 102.994-3.901 8.636-6.241 17.711-6.988 27.06-6.045.939-11.875 3.052-17.112 6.22-19.669-16.106-30.03-34.22-30.03-52.632 0-26.133 20.371-46.138 37.461-58.318 3.373-2.404 4.159-7.087 1.754-10.46-2.403-3.373-7.088-4.159-10.46-1.755-28.625 20.402-43.755 44.792-43.755 70.533 0 22.384 11.541 43.864 33.477 62.524-7.07 8.365-11.013 18.949-11.013 30.137 0 23.295 17.106 42.665 39.416 46.221v97.883c0 17.654 12.548 33.065 29.835 36.645 18.569 3.844 37.521 6.94 56.49 9.256-6.828 13.25-10.618 28.075-10.618 43.815v13.274c0 4.143 3.358 7.5 7.5 7.5h174.09c4.143 0 7.5-3.357 7.5-7.5v-13.276c0-14.903-3.406-29.82-10.617-43.815 18.971-2.316 37.923-5.413 56.49-9.257 17.288-3.578 29.836-18.988 29.836-36.644v-97.883c22.309-3.557 39.416-22.926 39.416-46.221 0-11.187-3.944-21.771-11.013-30.137 21.936-18.66 33.476-40.14 33.476-62.524zm-324.379-110.146c23.836-25.09 57.011-39.597 92.246-39.597 35.495 0 68.555 14.595 92.287 39.651-28.949-6.38-60.42-9.724-92.287-9.724-32.238 0-63.511 3.332-92.246 9.67zm-102.423 202.807c0-15.086 10.476-27.626 24.416-30.934v61.868c-13.985-3.343-24.416-15.94-24.416-30.934zm115.124 233.82c0-15.02 4.102-29.507 11.983-42.311 4.947 7.505 7.605 16.288 7.605 25.46v22.627h-19.588zm21.456-54.8c3.269-3.535 6.828-6.751 10.654-9.627 8.358 27.71 28.988 40.262 47.434 40.267h.011c18.442 0 39.067-12.548 47.426-40.262 3.831 2.878 7.391 6.092 10.655 9.622-8.511 10.786-13.132 24.028-13.132 37.949v22.627h-89.915v-22.627c-.002-13.92-4.622-27.162-13.133-37.949zm43.811-24.313c-8.812-.807-17.443-2.344-25.839-4.57-.313-.107-.631-.191-.952-.256-22.37-6.085-43.03-17.123-60.835-32.624v-118.17h8.857c49.544 0 98.706-15.716 139.174-44.372l25.048 25.049c8.606 8.606 19.13 14.547 30.728 17.4v120.092c-24.704 21.506-54.919 34.435-87.596 37.443-4.125.38-7.161 4.031-6.781 8.156.358 3.891 3.627 6.813 7.459 6.813.23 0 .463-.01.696-.031 5.637-.519 11.206-1.311 16.697-2.362-6.772 19.976-20.984 27.384-32.37 27.384-.001 0-.005 0-.007 0-11.389-.003-25.603-7.413-32.378-27.376 5.501 1.053 11.082 1.844 16.73 2.362.233.021.463.031.693.031 3.833 0 7.104-2.924 7.46-6.815.379-4.125-2.659-7.776-6.784-8.154zm93.823 84.889h-19.587v-22.627c0-9.173 2.658-17.956 7.605-25.46 7.858 12.765 11.983 27.244 11.983 42.311v5.776zm75.709-95.492c0 10.578-7.519 19.812-17.877 21.956-20.469 4.237-41.413 7.548-62.324 9.878-4.466-5.873-9.589-11.24-15.662-16.193 15.149-5.619 29.426-13.409 42.513-23.218v14.101c0 4.143 3.357 7.5 7.5 7.5s7.5-3.357 7.5-7.5v-159.638c0-3.73-2.742-6.895-6.436-7.424-10.904-1.563-20.823-6.546-28.685-14.408l-23.465-23.464 3.709-2.777c3.316-2.482 3.992-7.183 1.509-10.499s-7.183-3.993-10.499-1.509c-.015.011-10.63 7.959-10.646 7.969-38.849 29.155-86.949 45.211-135.438 45.211h-16.357c-4.142 0-7.5 3.357-7.5 7.5v159.04c0 4.143 3.358 7.5 7.5 7.5s7.5-3.357 7.5-7.5v-14.101c13.087 9.812 27.361 17.602 42.503 23.221-6.112 4.988-11.223 10.365-15.653 16.19-20.913-2.331-41.858-5.642-62.326-9.88-10.357-2.144-17.875-11.376-17.875-21.954v-183.76c0-9.534 1.992-18.779 5.921-27.477 22.619-50.074 68.248-85.355 122.058-94.377 18.002-3.019 36.549-3.017 54.548 0 53.811 9.021 99.44 44.303 122.059 94.377 3.929 8.697 5.921 17.942 5.921 27.477v183.759zm15-113.17v-61.867c13.94 3.308 24.416 15.847 24.416 30.934 0 14.993-10.431 27.589-24.416 30.933z"/></g></g></svg>