<svg id="Capa_1" enable-background="new 0 0 512 512" height="512" viewBox="0 0 512 512" width="512" xmlns="http://www.w3.org/2000/svg"><g><g><g><path d="m255.998 371.129c-15.727 0-30.824 2.744-44.846 7.766-33.963 12.163-62.482 38.12-77.468 72.49-7.1 16.285-11.053 34.244-11.053 53.115h133.369v-133.37c-.001-.001-.001-.001-.002-.001z" fill="#ffbf9d"/><path d="m378.315 451.383c-14.424-33.08-42.197-59.86-77.485-72.493-14.074-5.039-29.223-7.761-44.83-7.761v133.371h133.369c0-18.871-3.953-36.832-11.054-53.117z" fill="#ffd4bd"/></g><g><path d="m300.83 378.89c-14.075-5.04-29.223-7.761-44.832-7.761-15.727 0-30.824 2.744-44.846 7.766-33.963 12.163-62.482 38.12-77.468 72.49 13.232 11.632 28.579 22.765 44.422 32.198v20.917h155.771v-20.907c15.849-9.436 31.201-20.572 44.438-32.209-14.424-33.081-42.197-59.861-77.485-72.494z" fill="#64b3fb"/><path d="m285.133 374.348c-9.419-2.108-19.183-3.219-29.135-3.219-15.727 0-30.824 2.744-44.846 7.766-33.963 12.163-62.482 38.12-77.468 72.49 13.232 11.632 28.579 22.765 44.422 32.198v20.917h22.738c.064-57.953 34.644-107.819 84.289-130.152z" fill="#53a3ec"/></g></g><g><g fill="#ffbf9d"><circle cx="96.134" cy="225.398" r="39.746"/><circle cx="415.866" cy="225.398" r="39.746"/></g><g><path d="m300.816 378.885c66.476-19.378 115.05-80.757 115.05-153.487 0-79.266-57.688-145.057-133.37-157.682-8.619-1.438-17.471-2.186-26.498-2.186-88.289 0-159.865 71.575-159.865 159.867 0 72.731 48.575 134.109 115.049 153.487 14.221 4.146 29.257 6.377 44.816 6.377 9.028 0 17.879-.751 26.498-2.192 6.236-1.041 12.35-2.444 18.32-4.184z" fill="#ffd4bd"/><path d="m149.128 225.398c0-79.264 57.69-145.056 133.368-157.682-8.62-1.438-17.469-2.186-26.498-2.186-88.289 0-159.865 71.575-159.865 159.867 0 88.29 71.576 159.865 159.865 159.865 9.028 0 17.878-.754 26.498-2.192-75.678-12.625-133.368-78.41-133.368-157.672z" fill="#ffbf9d"/></g></g><g><path d="m256 96.725-24.538 14.128-130.427 75.097 25.779 24.933c11.934 11.543 30.377 13.001 43.977 3.478 21.957-15.377 46.981-24.28 72.541-26.508 4.212-.367 8.437-.573 12.667-.576 29.524-.017 59.208 8.876 85.208 27.084 13.6 9.523 32.043 8.064 43.977-3.478l25.779-24.933z" fill="#b28ae4"/><path d="m231.462 160.162v-49.309l-130.427 75.097 25.779 24.933c11.934 11.543 30.377 13.001 43.977 3.478 21.957-15.377 46.981-24.28 72.541-26.508-.271-4.998-2.351-9.739-5.908-13.297-3.817-3.817-5.962-8.994-5.962-14.394z" fill="#976bcf"/></g><g><path d="m386.873 88.068c-7.299-29.657-29.56-53.317-58.669-62.355l-11.619-3.607-34.502-10.712c-8.494-2.637-17.291-3.931-26.083-3.894-8.792-.037-17.589 1.256-26.083 3.894l-46.121 14.32c-29.109 9.038-51.37 32.697-58.669 62.355-2.436 9.899-21.327 86.653-24.091 97.883 39.197-21.49 81.741-34.706 130.427-37.606 8.01-.477 16.182-.685 24.538-.593 59.141-.646 109.319 13.173 154.964 38.199-2.758-11.201-21.663-88.015-24.092-97.884z" fill="#fce3a0"/><path d="m304.967 25.714 11.618-3.607-34.502-10.712c-8.494-2.638-17.291-3.932-26.083-3.895-8.792-.037-17.589 1.256-26.083 3.894l-46.121 14.32c-29.109 9.038-51.37 32.697-58.669 62.355-2.436 9.899-21.327 86.653-24.091 97.883 39.197-21.49 81.741-34.706 130.427-37.606 6.209-25.226 13.396-54.427 14.835-60.277 7.299-29.658 29.56-53.318 58.669-62.355z" fill="#ffce71"/></g><g fill="#ffbf9d"><path d="m168.847 254.447c-17.571 0-31.815 11.343-31.815 25.336s14.244 25.336 31.815 25.336 31.814-11.343 31.814-25.336-14.243-25.336-31.814-25.336z"/><path d="m343.022 254.447c-17.643 0-31.945 11.343-31.945 25.336s14.302 25.336 31.945 25.336 31.945-11.343 31.945-25.336c.001-13.993-14.302-25.336-31.945-25.336z"/></g><g><path d="m187.209 234.83c-4.143 0-7.5 3.358-7.5 7.5v13.219c0 4.142 3.357 7.5 7.5 7.5s7.5-3.358 7.5-7.5v-13.219c0-4.142-3.358-7.5-7.5-7.5z"/><path d="m324.791 234.83c-4.143 0-7.5 3.358-7.5 7.5v13.219c0 4.142 3.357 7.5 7.5 7.5s7.5-3.358 7.5-7.5v-13.219c0-4.142-3.358-7.5-7.5-7.5z"/><path d="m279.064 249.501c-3.123-2.722-7.86-2.396-10.582.726-3.151 3.616-7.701 5.69-12.482 5.69s-9.331-2.074-12.482-5.69c-2.723-3.123-7.46-3.448-10.582-.726-3.123 2.721-3.447 7.459-.727 10.582 6.001 6.885 14.673 10.834 23.791 10.834s17.79-3.949 23.791-10.834c2.72-3.123 2.396-7.861-.727-10.582z"/><path d="m416.773 178.175-8.114-32.968c-.99-4.023-5.052-6.479-9.075-5.49-4.021.99-6.479 5.053-5.489 9.075l5.644 22.929c-44.743-21.707-91.942-32.023-143.738-31.469-51.783-.56-98.993 9.761-143.738 31.469l20.147-81.86c6.631-26.94 27.173-48.775 53.61-56.984l46.12-14.319c7.604-2.36 15.506-3.557 23.488-3.557h.744c7.984 0 15.887 1.197 23.488 3.557l46.121 14.319c26.437 8.209 46.979 30.044 53.608 56.982l7.32 29.744c.99 4.022 5.057 6.479 9.074 5.49 4.022-.99 6.48-5.053 5.49-9.075l-7.319-29.742c-7.879-32.015-32.297-57.966-63.727-67.725l-46.12-14.32c-9.042-2.807-18.441-4.231-27.935-4.231h-.201-.543c-9.491 0-18.891 1.424-27.936 4.231l-46.12 14.319c-31.43 9.759-55.849 35.709-63.728 67.725l-22.618 91.899c-25.632.487-46.338 21.476-46.338 47.223 0 25.815 20.815 46.848 46.541 47.228 14.226 48.285 49.677 87.566 95.516 106.977-7.33 3.833-14.337 8.299-20.933 13.395-3.278 2.533-3.883 7.243-1.35 10.521 2.536 3.283 7.249 3.878 10.52 1.35 9.878-7.632 20.763-13.718 32.354-18.111 14.165 3.908 29.072 6.006 44.462 6.006 15.392 0 30.3-2.099 44.466-6.007 29.884 11.326 54.621 33.948 68.667 62.635-8.61 7.251-18.01 14.231-27.754 20.643v-13.036c0-4.142-3.357-7.5-7.5-7.5s-7.5 3.358-7.5 7.5v40.001h-140.772c0-14.558 0-24.389 0-40.001 0-4.142-3.357-7.5-7.5-7.5s-7.5 3.358-7.5 7.5v13.026c-9.739-6.409-19.134-13.386-27.739-20.632 4.342-8.878 9.715-17.221 16.017-24.862 2.636-3.195 2.182-7.922-1.014-10.558-3.194-2.634-7.922-2.183-10.559 1.014-20.285 24.594-32.18 55.948-32.18 89.514 0 4.142 3.357 7.5 7.5 7.5h266.738c4.143 0 7.5-3.358 7.5-7.5 0-53.246-29.947-100.874-75.804-124.903 45.834-19.413 81.28-58.691 95.505-106.971 25.726-.379 46.541-21.413 46.541-47.228.001-25.748-20.704-46.736-46.337-47.223zm-352.885 47.222c0-16.274 12.12-29.763 27.807-31.933-4.054 20.983-4.112 42.625.008 63.867-15.69-2.166-27.815-15.657-27.815-31.934zm106.717 271.603h-40.255c.666-11.34 2.853-22.423 6.521-33.118 10.5 8.551 21.955 16.692 33.734 23.93zm211.044 0h-40.272v-9.179c11.785-7.24 23.246-15.386 33.75-23.941 3.669 10.695 5.856 21.778 6.522 33.12zm-125.731-341.749c.055.001.109.001.164 0 51.408-.557 98.065 10.083 142.231 32.501l-18.342 17.74c-9.332 9.027-23.824 10.174-34.462 2.726-26.57-18.607-57.489-28.44-89.424-28.44-.029 0-.061 0-.09 0-32.013.018-62.964 9.853-89.506 28.44-10.634 7.446-25.127 6.302-34.462-2.726l-18.342-17.74c44.169-22.418 90.824-33.051 142.233-32.501zm.08 222.511c-93.328 0-165.491-83.75-150.376-176.942l15.979 15.454c14.486 14.012 36.985 15.791 53.493 4.231 24.011-16.815 51.989-25.711 80.91-25.728h.082c28.838 0 56.786 8.896 80.82 25.728 16.518 11.567 39.016 9.773 53.493-4.231l15.982-15.457c15.074 93.024-56.88 176.945-150.383 176.945zm164.299-120.431c4.024-20.747 4.156-42.41.012-63.866 15.685 2.172 27.802 15.66 27.802 31.932 0 16.277-12.124 29.768-27.814 31.934z"/></g></g></svg>