<svg id="Capa_1" enable-background="new 0 0 512 512" height="512" viewBox="0 0 512 512" width="512" xmlns="http://www.w3.org/2000/svg"><g><g><g><path d="m335.045 425.111c-14.582-18.311-35.273-31.472-58.924-36.297-6.505-1.327-13.234-2.024-20.122-2.024-31.929 0-60.451 14.974-79.044 38.321-13.954 17.522-22.317 39.757-22.317 63.929v15.46h101.362 101.362v-15.46c0-7.897-.893-15.587-2.581-22.973-3.48-15.224-10.341-29.158-19.736-40.956z" fill="#ff8e9e"/><g><path d="m338.814 430.156c-1.209-1.726-2.459-3.4-3.769-5.044-14.582-18.311-35.272-31.472-58.924-36.297-6.505-1.328-13.234-2.024-20.122-2.024-31.929 0-60.451 14.974-79.044 38.321-1.309 1.644-2.563 3.321-3.771 5.045 17.305 6.716 34.049 10.904 50.938 13.208 5.051.724 9.603 3.436 12.537 7.615l19.341 27.535 19.344-27.541c2.928-4.168 7.465-6.881 12.503-7.607 16.937-2.308 33.696-6.507 50.967-13.211z" fill="#ffd4bd"/><path d="m236.66 450.978 15.096 21.493c-1.945-8.965-3.441-18.016-4.448-27.129-1.07-9.677-1.607-19.42-1.607-29.19v-28.829c-.002.001-.004.001-.005.001-16.345 1.674-32.485 7.385-46.882 17.347-9.812 6.756-18.7 15.594-25.629 25.484 17.305 6.716 34.049 10.904 50.938 13.208 5.05.724 9.602 3.437 12.537 7.615z" fill="#ffbf9d"/></g><path d="m251.755 472.472-15.096-21.493c-3.527-5.022-8.247-7.015-13.869-7.815-16.873-2.394-33.393-6.721-49.57-12.993-.012-.005-.025-.009-.037-.014.012.005.025.009.037.014-.012-.005-.025-.01-.037-.014-1.869 2.673-3.605 5.436-5.222 8.285-8.468 14.93-13.324 32.201-13.324 50.599v15.46h24.127 77.236 4.537l-3.44-11.367c-2.065-6.824-3.835-13.718-5.342-20.662z" fill="#ea5b70"/></g><g><path d="m176.955 425.111c-13.954 17.521-22.317 39.757-22.317 63.929v15.46h64.905c-8.672-28.647-13.079-58.415-13.079-88.346v-16.297c-11.369 6.453-21.387 15.054-29.509 25.254z" fill="#4293dd"/><path d="m335.045 425.111c13.954 17.521 22.317 39.757 22.317 63.929v15.46h-64.905c8.672-28.647 13.079-58.415 13.079-88.346v-16.297c11.369 6.453 21.387 15.054 29.509 25.254z" fill="#64b3fb"/></g><g><path d="m206.463 416.154v-16.297c-11.368 6.453-21.386 15.055-29.508 25.254-1.225 1.538-2.419 3.126-3.555 4.736-3.852 5.46-3.386 12.859.945 17.948l15.36 18.045-4.192 10.927c-3.011 7.849 1.116 16.627 9.081 19.315l24.947 8.419c-8.67-28.648-13.078-58.416-13.078-88.347z" fill="#64b3fb"/><path d="m305.536 416.154v-16.297c11.368 6.453 21.386 15.055 29.508 25.254 1.225 1.538 2.406 3.114 3.542 4.724 3.852 5.46 3.398 12.872-.933 17.96l-15.36 18.045 4.192 10.927c3.011 7.849-1.116 16.627-9.081 19.315l-24.948 8.419c8.673-28.648 13.08-58.416 13.08-88.347z" fill="#88c5fd"/></g></g><g fill="#c77464"><path d="m167.939 309.949c-16.07-4.025-32.365 5.737-36.391 21.81-7.177 28.647-24.907 53.068-49.924 68.765-3.587 2.25-6.53 5.138-8.783 8.42-4.966-3.819-11.164-6.092-17.889-6.092-15.906 0-34.913 15.248-46.123 26.556-.885.903-1.328 2.086-1.329 3.269-.001 1.188.445 2.373 1.338 3.274 11.037 11.133 30.534 26.55 46.114 26.55 10.311 0 19.096-5.07 24.345-12.778 5.279 4.054 11.737 6.218 18.299 6.218 5.447 0 10.961-1.483 15.916-4.592 38.203-23.969 65.277-61.262 76.237-105.008 4.027-16.072-5.738-32.365-21.81-36.392z"/><path d="m503.162 429.401c-11.037-11.133-30.534-26.55-46.114-26.55-8.126 0-15.301 3.152-20.55 8.258-2.372-4.181-5.783-7.852-10.14-10.586-25.018-15.696-42.748-40.117-49.924-68.765-4.026-16.072-20.321-25.835-36.391-21.81-16.072 4.026-25.836 20.319-21.81 36.391 10.959 43.746 38.034 81.039 76.237 105.008 4.955 3.108 10.469 4.592 15.916 4.592 7.719 0 15.295-2.988 20.972-8.535 5.084 9.014 14.681 15.096 25.69 15.096 15.906 0 34.913-15.247 46.123-26.555.885-.903 1.328-2.087 1.329-3.27.001-1.186-.445-2.372-1.338-3.274z"/></g><g><path d="m445.645 170.987h-379.29c-25.282 0-45.776 20.495-45.776 45.776s20.495 45.776 45.776 45.776h379.289c25.282 0 45.776-20.495 45.776-45.776s-20.494-45.776-45.775-45.776z" fill="#ffbf9d"/><path d="m287.582 29.751c-10.272-1.722-20.821-2.633-31.582-2.633-10.762 0-21.309.91-31.582 2.633-89.703 15.039-158.063 93.036-158.063 187.012s68.36 171.973 158.063 187.012c10.272 1.722 20.82 2.633 31.582 2.633s21.31-.91 31.582-2.633c89.703-15.039 158.062-93.036 158.062-187.012s-68.359-171.973-158.062-187.012z" fill="#ffd4bd"/><path d="m129.264 217.027c0-94.143 68.483-172.28 158.319-187.276-10.272-1.722-20.821-2.633-31.582-2.633-10.762 0-21.309.91-31.582 2.633-89.704 15.039-158.064 93.036-158.064 187.012s68.36 171.973 158.063 187.012c10.272 1.722 20.82 2.633 31.582 2.633s21.31-.91 31.582-2.633c-89.835-14.996-158.318-92.608-158.318-186.748z" fill="#ffbf9d"/></g><g fill="#ff8e9e"><path d="m152.676 248.973c-20.948 0-37.929 13.468-37.929 30.081s16.981 30.082 37.929 30.082 37.929-13.469 37.929-30.082-16.981-30.081-37.929-30.081z"/><path d="m359.323 248.973c-20.948 0-37.929 13.468-37.929 30.081s16.981 30.082 37.929 30.082 37.929-13.469 37.929-30.082-16.981-30.081-37.929-30.081z"/></g><g><path d="m297.339 11.597c-13.367-2.682-27.189-4.097-41.339-4.097-46.667 0-77.782 37.305-77.782 76.6 0 41.544 33.6 76.013 76.013 76.013 27.076 0 52.73 7.573 74.676 20.929 31.216 18.998 54.924 49.7 64.515 87l17.802 69.235c1.645 6.396 10.019 8.057 13.909 2.72 25.979-35.643 40.131-78.822 40.131-123.233-.001-101.414-72.218-185.965-167.925-205.167z" fill="#c77464"/><path d="m300.93 153.064c-19.909-19.909-31.094-46.912-31.094-75.067v-.001c0-24.904 9.893-48.789 27.503-66.399-13.367-2.682-27.189-4.097-41.339-4.097-26.668 0-48.244 12.193-61.85 29.968l-.013-.013c-10.969-10.969-27.878-13.253-41.42-5.688-21.761 12.155-41.395 28.159-57.874 47.446-12.715 14.882-23.203 31.361-31.279 48.908-6.72 14.602-3.359 31.867 8.362 42.865h7.705c25.99 0 48.678-15.005 59.808-37.192l.049-.097c7.586-15.072 20.482-26.873 36.27-32.829 1.333-.503 2.67-.992 4.01-1.469 7.052 34.376 37.389 60.713 74.462 60.713 27.076 0 52.73 7.573 74.676 20.929z" fill="#ac6757"/></g><g><path d="m181.823 250.114v-15.694c0-4.143-3.357-7.5-7.5-7.5s-7.5 3.357-7.5 7.5v15.694c0 4.143 3.357 7.5 7.5 7.5s7.5-3.357 7.5-7.5z"/><path d="m345.176 250.114v-15.694c0-4.143-3.357-7.5-7.5-7.5s-7.5 3.357-7.5 7.5v15.694c0 4.143 3.357 7.5 7.5 7.5s7.5-3.357 7.5-7.5z"/><path d="m256 266.957c10.421 0 20.33-4.513 27.187-12.382 2.722-3.123 2.396-7.86-.727-10.582-3.125-2.722-7.862-2.396-10.582.727-4.008 4.6-9.796 7.237-15.879 7.237s-11.871-2.638-15.879-7.237c-2.723-3.122-7.46-3.447-10.582-.727-3.122 2.722-3.448 7.459-.727 10.582 6.859 7.869 16.768 12.382 27.189 12.382z"/><path d="m508.488 424.121c-6.691-6.749-30.175-28.77-51.44-28.77-6.826 0-13.364 1.811-19.034 5.197-2.255-2.448-4.837-4.601-7.67-6.379-14.861-9.323-27.124-22.111-35.752-37.187 4.083-4.051 8.012-8.288 11.763-12.718 6.037 8.483 18.768 8.569 24.834.154 17.011-23.353 29.347-50.05 36.014-78.938 42.117-18.633 42.256-78.685.052-97.415-18.928-82.333-84.79-147.013-168.445-163.826-4.077-.828-8.012 1.857-8.83 5.881-.823 4.163 1.904 8.038 5.88 8.829 80.131 16.061 142.17 78.23 158.051 158.37 2.56 12.9 3.85 26.17 3.85 39.44 0 68.553-37.378 118.199-38.76 118.89-.01.011-.01.021-.021.021-.09 0-.069.01-.1.02-.1 0-.242-.042-.33-.13-.033 0-17.852-69.358-17.86-69.39-17.28-67.171-77.844-113.561-146.46-113.561h-.04c-38.963 0-70.556-32.994-68.366-72.261.23-4.136-2.936-7.675-7.071-7.905-4.136-.219-7.674 2.936-7.905 7.071-.27 4.819-.128 9.658.559 15.104-17.529 7.477-30.515 19.454-38.616 35.712l-.05.1c-10.25 20.39-30.601 33.06-53.11 33.06h-4.54c-7.645-8.679-9.755-21.28-4.71-32.229 7.85-17.061 17.99-32.93 30.16-47.17 15.819-18.521 34.609-33.92 55.83-45.771 8.415-4.725 19.061-4.745 27.63.601-1.828 2.872-3.506 5.841-4.976 8.908-1.791 3.735-.215 8.215 3.521 10.005 3.733 1.791 8.214.216 10.005-3.521 11.021-22.994 34.052-39.275 63.449-39.313 3.75 0 7.52.1 11.189.31 4.141.23 7.681-2.97 7.9-7.08.229-4.13-2.95-7.67-7.07-7.899-3.95-.222-7.99-.331-12.019-.331h-.11c-12.53 0-24.479 2.5-35.49 7.42-10.38 4.63-19.54 11.21-27.239 19.569-13.366-9-30.448-9.404-44.11-1.77-22.78 12.729-42.94 29.25-59.91 49.12-13.06 15.28-23.96 32.32-32.39 50.649-5.651 12.275-5.609 26.596.838 39.232-25.219 4.194-44.509 26.151-44.509 52.541 0 29.312 23.794 53.166 53.082 53.271 4.836 17.272 12.028 33.861 21.442 49.284 2.159 3.54 6.779 4.651 10.309 2.494 3.536-2.158 4.652-6.773 2.494-10.309-24.425-40.018-32.187-87.762-22.511-133.015 31.88 0 56.213-17.324 68.244-41.329 0-.011.01-.011.01-.011 4.434-10.156 14.488-20.949 28.54-27.56 10.94 34.011 42.55 58.02 79.54 58.02 60.489 0 116.033 40.466 131.931 102.301l14.715 57.23c-70.862 92.935-208.585 95.688-283.581 7.675-2.688-3.154-7.423-3.53-10.573-.845-3.153 2.687-3.531 7.421-.845 10.573 2.883 3.384 5.874 6.657 8.962 9.823-8.68 16.224-21.447 29.919-37.199 39.803-2.309 1.448-4.429 3.119-6.343 4.998-5.045-2.512-10.59-3.816-16.344-3.816-20.688 0-42.872 20.123-51.481 28.808-2.235 2.282-3.468 5.305-3.471 8.511-.003 3.233 1.244 6.273 3.512 8.561 6.691 6.749 30.175 28.77 51.44 28.77 9.815 0 19.082-3.836 25.902-10.511 11.786 5.857 25.583 5.15 36.645-1.788 24.276-15.231 44.626-36.036 59.226-60.432 4.149 1.825 8.36 3.513 12.63 5.049-27.006 21.124-42.217 53.528-42.217 86.722v15.46c0 4.143 3.357 7.5 7.5 7.5h202.725c4.143 0 7.5-3.357 7.5-7.5v-15.46c0-33.219-15.228-65.586-42.177-86.688 3.179-1.137 6.321-2.354 9.428-3.65 14.522 23.763 34.579 44.072 58.37 59 5.984 3.754 12.866 5.738 19.901 5.738 6.968 0 13.66-1.892 19.472-5.429 6.933 7.541 16.77 11.991 27.19 11.991 20.689 0 42.872-20.123 51.481-28.807 2.235-2.282 3.468-5.306 3.471-8.512.003-3.233-1.244-6.273-3.512-8.56zm-37.643-236.156c17.441 15.291 17.415 42.349-.015 57.61 2.483-18.511 2.655-37.712.015-57.61zm-408.287 66.885c-19.329-1.913-34.479-18.263-34.479-38.087 0-19.826 15.153-36.177 34.485-38.086-4.757 24.287-5.127 50.069-.006 76.173zm-7.606 200.15c-10.879 0-26.895-10.909-38.756-22.328 11.525-11.141 27.164-22.32 38.756-22.32 3.915 0 7.661 1.037 10.992 2.991l5.441 34.36c-4.119 4.668-9.969 7.297-16.433 7.297zm54.575-10.006c-7.084 4.444-15.986 4.625-23.334.321l-5.434-34.314c1.409-1.587 3.023-2.978 4.851-4.124 16.807-10.545 30.636-24.902 40.466-41.868 11.38 9.97 23.834 18.581 37.098 25.672-13.336 21.889-31.745 40.571-53.647 54.313zm52.611 52.006c0-10.043-.737-24.916 6.954-43.808l12.016 14.118-2.598 6.77c-3.15 8.212-1.122 16.933 4.257 22.92zm30.588-11.832c-1.665-3.545-.484-5.001 3.982-16.642.983-2.563.488-5.458-1.291-7.548l-15.359-18.045c-2.12-2.49-2.357-6.001-.618-8.608 5.528-7.83 11.929-14.608 19.524-20.488 0 26.633 2.662 51.768 9.571 79.032-12.068-4.072-14.13-4.128-15.809-7.701zm94.11 11.832h-61.673c-4.385-15.521-7.488-31.339-9.3-47.32 2.403.406 4.807.782 7.195 1.107 3.04.436 5.76 2.076 7.463 4.502l19.341 27.537c2.982 4.245 9.288 4.252 12.275 0l19.344-27.542c1.699-2.42 4.409-4.058 7.378-4.485 2.423-.33 4.852-.711 7.277-1.12-1.812 15.981-4.915 31.8-9.3 47.321zm10.642-62.795c-10.553 1.973-20.648 1.605-28.272 12.458l-13.206 18.804-13.203-18.799c-4.072-5.798-10.491-9.709-17.662-10.736-3.537-.482-7.088-1.065-10.613-1.726-.631-10.4-.558-16.813-.558-24.815 27.632 6.011 56.27 6.031 84.072.01 0 7.873.077 14.352-.558 24.804zm45.43 18.987c7.598 18.661 6.954 33.281 6.954 43.808h-20.631c5.363-5.966 7.416-14.684 4.257-22.92l-2.598-6.77zm-10.376-18.907c1.764 2.619 1.536 6.15-.59 8.648l-15.359 18.045c-1.779 2.09-2.274 4.985-1.292 7.548l4.192 10.927c1.484 3.867-.539 8.193-4.478 9.521l-11.541 3.895c6.873-27.122 9.571-52.24 9.571-79.032 7.708 5.967 14.071 12.77 19.497 20.448zm91.789 9.316c-3.941 3.093-8.898 4.839-13.937 4.839-4.212 0-8.338-1.191-11.93-3.445-21.337-13.387-39.389-31.488-52.628-52.645 13.389-6.845 25.954-15.221 37.473-24.996 9.732 15.942 23.085 29.494 39.071 39.522 2.474 1.553 4.619 3.582 6.311 5.934zm32.727 11.399c-7.105 0-13.755-3.511-17.876-9.287l4.36-30.783c3.809-2.961 8.522-4.578 13.516-4.578 10.879 0 26.896 10.909 38.756 22.328-11.525 11.14-27.163 22.32-38.756 22.32z"/></g></g></svg>